<?xml version="1.0" encoding="UTF-8"?>
<!DOCTYPE svg PUBLIC "-//W3C//DTD SVG 1.1//EN" "http://www.w3.org/Graphics/SVG/1.1/DTD/svg11.dtd">
<svg xmlns="http://www.w3.org/2000/svg" version="1.1" width="200px" height="200px" style="shape-rendering:geometricPrecision; text-rendering:geometricPrecision; image-rendering:optimizeQuality; fill-rule:evenodd; clip-rule:evenodd" xmlns:xlink="http://www.w3.org/1999/xlink">
<g><path style="opacity:1" fill="#bcbecf" d="M 45.5,-0.5 C 56.5,-0.5 67.5,-0.5 78.5,-0.5C 71.9347,-0.14893 65.6014,0.85107 59.5,2.5C 53.9975,3.30457 48.3308,3.97123 42.5,4.5C 40.6958,4.01351 39.0291,3.34684 37.5,2.5C 36.8333,2.5 36.1667,2.5 35.5,2.5C 38.7796,1.28794 42.1129,0.287939 45.5,-0.5 Z"/></g>
<g><path style="opacity:1" fill="#91d3df" d="M 148.5,-0.5 C 150.167,-0.5 151.833,-0.5 153.5,-0.5C 158.244,0.519724 162.911,1.85306 167.5,3.5C 162.375,3.76513 157.375,3.76513 152.5,3.5C 151.167,2.16667 149.833,0.833333 148.5,-0.5 Z"/></g>
<g><path style="opacity:1" fill="#a4a3b7" d="M 78.5,-0.5 C 98.8333,-0.5 119.167,-0.5 139.5,-0.5C 138.77,1.04504 137.437,1.87838 135.5,2C 127.904,2.75497 120.404,2.25497 113,0.5C 110.134,0.29989 107.634,0.966556 105.5,2.5C 94.1599,3.80914 82.8266,3.80914 71.5,2.5C 67.5,2.5 63.5,2.5 59.5,2.5C 65.6014,0.85107 71.9347,-0.14893 78.5,-0.5 Z"/></g>
<g><path style="opacity:1" fill="#9a92a8" d="M 139.5,-0.5 C 142.5,-0.5 145.5,-0.5 148.5,-0.5C 149.833,0.833333 151.167,2.16667 152.5,3.5C 158.412,5.45628 164.745,6.12295 171.5,5.5C 173.819,5.99249 175.819,6.99249 177.5,8.5C 174.833,10.1667 172.167,11.8333 169.5,13.5C 169.167,13.5 168.833,13.5 168.5,13.5C 163.577,15.2951 158.91,17.6284 154.5,20.5C 159.535,27.43 161.368,35.0966 160,43.5C 159.667,43.8333 159.333,44.1667 159,44.5C 158.817,41.6353 158.317,38.9686 157.5,36.5C 152.912,21.8508 143.579,11.3508 129.5,5C 123.32,3.97779 117.32,4.47779 111.5,6.5C 111.167,6.83333 110.833,7.16667 110.5,7.5C 112.5,8.33333 114.5,9.16667 116.5,10C 113.525,10.0435 110.525,9.87687 107.5,9.5C 105.526,8.09408 103.526,6.59408 101.5,5C 103.066,4.3918 104.4,3.55847 105.5,2.5C 107.634,0.966556 110.134,0.29989 113,0.5C 120.404,2.25497 127.904,2.75497 135.5,2C 137.437,1.87838 138.77,1.04504 139.5,-0.5 Z"/></g>
<g><path style="opacity:1" fill="#616c83" d="M 152.5,3.5 C 157.375,3.76513 162.375,3.76513 167.5,3.5C 169.153,3.6596 170.486,4.32627 171.5,5.5C 164.745,6.12295 158.412,5.45628 152.5,3.5 Z"/></g>
<g><path style="opacity:1" fill="#9b9bbb" d="M 37.5,2.5 C 39.0291,3.34684 40.6958,4.01351 42.5,4.5C 48.3308,3.97123 53.9975,3.30457 59.5,2.5C 63.5,2.5 67.5,2.5 71.5,2.5C 71.5,2.83333 71.5,3.16667 71.5,3.5C 67.774,3.17744 64.1073,3.51078 60.5,4.5C 61.1667,5.83333 61.8333,7.16667 62.5,8.5C 60.812,9.5213 59.4787,10.8546 58.5,12.5C 53.8333,15.1667 50.1667,18.8333 47.5,23.5C 44.889,26.3727 42.0557,29.0394 39,31.5C 38.3486,29.765 38.5153,28.0983 39.5,26.5C 37.2573,25.5258 34.924,25.1924 32.5,25.5C 32.6878,22.7939 33.6878,20.4605 35.5,18.5C 36.4511,16.882 37.7844,15.5487 39.5,14.5C 38.8333,13.8333 38.1667,13.1667 37.5,12.5C 39.0534,11.561 40.3867,10.3943 41.5,9C 41.2645,8.12682 40.9312,7.29349 40.5,6.5C 37.8697,5.61852 35.203,4.95186 32.5,4.5C 34.1667,3.83333 35.8333,3.16667 37.5,2.5 Z"/></g>
<g><path style="opacity:1" fill="#80809f" d="M 71.5,3.5 C 72.906,5.74707 74.7393,6.08041 77,4.5C 79.0345,6.48497 81.5345,7.65163 84.5,8C 83.3508,9.7441 82.0175,9.91077 80.5,8.5C 79.2267,9.2565 79.2267,9.92317 80.5,10.5C 71.1109,15.8932 64.1109,23.5599 59.5,33.5C 59.9698,34.463 60.6365,34.463 61.5,33.5C 62.3764,33.3691 63.0431,33.7025 63.5,34.5C 60.129,39.9304 56.7957,45.2637 53.5,50.5C 55.1994,46.5775 56.3661,42.5775 57,38.5C 54.8601,39.7282 53.1934,41.3949 52,43.5C 50.7356,39.619 50.5689,35.619 51.5,31.5C 53.1439,31.7135 54.6439,31.3802 56,30.5C 56.4955,28.5273 56.6621,26.5273 56.5,24.5C 58.8056,24.0074 61.139,23.6741 63.5,23.5C 63.8204,20.1016 63.487,16.7683 62.5,13.5C 60.9017,14.4847 59.235,14.6514 57.5,14C 58.056,13.6174 58.3893,13.1174 58.5,12.5C 59.4787,10.8546 60.812,9.5213 62.5,8.5C 61.8333,7.16667 61.1667,5.83333 60.5,4.5C 64.1073,3.51078 67.774,3.17744 71.5,3.5 Z"/></g>
<g><path style="opacity:1" fill="#a8a8b9" d="M 35.5,2.5 C 36.1667,2.5 36.8333,2.5 37.5,2.5C 35.8333,3.16667 34.1667,3.83333 32.5,4.5C 31.8333,4.5 31.5,4.83333 31.5,5.5C 25.2624,7.10916 20.2624,10.4425 16.5,15.5C 13.0806,17.6451 10.0806,20.3118 7.5,23.5C 10.8842,17.2771 15.5509,12.1104 21.5,8C 25.8789,5.30593 30.5456,3.4726 35.5,2.5 Z"/></g>
<g><path style="opacity:1" fill="#83849d" d="M 31.5,5.5 C 31.5,6.16667 31.5,6.83333 31.5,7.5C 26.3413,9.91211 21.3413,12.5788 16.5,15.5C 20.2624,10.4425 25.2624,7.10916 31.5,5.5 Z"/></g>
<g><path style="opacity:1" fill="#646288" d="M 32.5,4.5 C 35.203,4.95186 37.8697,5.61852 40.5,6.5C 40.9312,7.29349 41.2645,8.12682 41.5,9C 40.3867,10.3943 39.0534,11.561 37.5,12.5C 38.1667,13.1667 38.8333,13.8333 39.5,14.5C 37.7844,15.5487 36.4511,16.882 35.5,18.5C 34.6561,14.9009 34.3227,11.2343 34.5,7.5C 33.5,7.5 32.5,7.5 31.5,7.5C 31.5,6.83333 31.5,6.16667 31.5,5.5C 31.5,4.83333 31.8333,4.5 32.5,4.5 Z"/></g>
<g><path style="opacity:1" fill="#e7e0e0" d="M 143.5,31.5 C 141.167,31.5 138.833,31.5 136.5,31.5C 136.378,28.7079 135.044,26.7079 132.5,25.5C 130.185,20.8819 127.352,16.5486 124,12.5C 123.107,13.7112 122.274,13.7112 121.5,12.5C 122.853,11.4763 123.52,10.143 123.5,8.5C 124.833,8.5 126.167,8.5 127.5,8.5C 127.5,9.5 127.5,10.5 127.5,11.5C 130.579,11.7399 133.579,11.4066 136.5,10.5C 138.756,11.4209 139.756,13.0876 139.5,15.5C 143.466,16.6147 146.466,19.1147 148.5,23C 146.899,23.2734 145.399,23.7734 144,24.5C 143.503,26.8098 143.337,29.1432 143.5,31.5 Z"/></g>
<g><path style="opacity:1" fill="#d9cfd3" d="M 177.5,8.5 C 181.456,10.7881 184.789,13.7881 187.5,17.5C 186.749,18.5735 185.749,18.7401 184.5,18C 182.981,16.6487 181.648,15.1487 180.5,13.5C 177.299,14.9231 173.966,15.9231 170.5,16.5C 170.407,15.5281 170.074,14.5281 169.5,13.5C 172.167,11.8333 174.833,10.1667 177.5,8.5 Z"/></g>
<g><path style="opacity:1" fill="#8d87a2" d="M 71.5,3.5 C 71.5,3.16667 71.5,2.83333 71.5,2.5C 82.8266,3.80914 94.1599,3.80914 105.5,2.5C 104.4,3.55847 103.066,4.3918 101.5,5C 103.526,6.59408 105.526,8.09408 107.5,9.5C 106.185,10.4756 104.852,11.4756 103.5,12.5C 104.602,13.1757 105.602,13.8423 106.5,14.5C 106.657,15.8734 106.49,17.2068 106,18.5C 105.722,17.5842 105.222,16.9175 104.5,16.5C 103.833,15.1667 103.167,15.1667 102.5,16.5C 99.7374,16.7438 97.5707,18.0771 96,20.5C 91.1597,27.509 87.993,35.1757 86.5,43.5C 85.7321,44.2625 85.2321,45.2625 85,46.5C 84.3333,44.5 84.3333,42.5 85,40.5C 86.4407,33.3393 88.774,26.6726 92,20.5C 77.3532,35.4671 69.5199,53.4671 68.5,74.5C 68.1667,74.5 67.8333,74.5 67.5,74.5C 67.7104,65.468 68.377,56.468 69.5,47.5C 70.086,47.7093 70.586,48.0426 71,48.5C 73.1172,45.3076 74.9505,41.9742 76.5,38.5C 76.0513,33.3747 75.718,28.0414 75.5,22.5C 76.8333,22.5 78.1667,22.5 79.5,22.5C 79.5,21.5 79.5,20.5 79.5,19.5C 78.1266,19.6567 76.7932,19.49 75.5,19C 76.2524,18.3292 76.5858,17.4959 76.5,16.5C 79.0007,13.3895 82.3341,11.7228 86.5,11.5C 84.604,10.5344 82.604,10.2011 80.5,10.5C 79.2267,9.92317 79.2267,9.2565 80.5,8.5C 82.0175,9.91077 83.3508,9.7441 84.5,8C 81.5345,7.65163 79.0345,6.48497 77,4.5C 74.7393,6.08041 72.906,5.74707 71.5,3.5 Z"/></g>
<g><path style="opacity:1" fill="#44456e" d="M 31.5,7.5 C 32.5,7.5 33.5,7.5 34.5,7.5C 34.3227,11.2343 34.6561,14.9009 35.5,18.5C 33.6878,20.4605 32.6878,22.7939 32.5,25.5C 34.924,25.1924 37.2573,25.5258 39.5,26.5C 38.5153,28.0983 38.3486,29.765 39,31.5C 42.0557,29.0394 44.889,26.3727 47.5,23.5C 43.354,29.7764 39.1874,36.1097 35,42.5C 32.0762,49.345 28.9095,56.0117 25.5,62.5C 24.2521,61.6661 23.5854,60.3328 23.5,58.5C 22.8838,54.8548 22.5505,51.1881 22.5,47.5C 18.8333,47.5 15.1667,47.5 11.5,47.5C 11.5,46.1667 11.5,44.8333 11.5,43.5C 10.1667,43.5 8.83333,43.5 7.5,43.5C 6.49004,46.8537 6.49004,50.187 7.5,53.5C 6.73837,55.8858 5.40503,56.5525 3.5,55.5C 3.26826,47.7414 3.93493,40.0747 5.5,32.5C 9.31883,26.9383 12.9855,21.2716 16.5,15.5C 21.3413,12.5788 26.3413,9.91211 31.5,7.5 Z"/></g>
<g><path style="opacity:1" fill="#656582" d="M 80.5,10.5 C 82.604,10.2011 84.604,10.5344 86.5,11.5C 82.3341,11.7228 79.0007,13.3895 76.5,16.5C 73.7374,16.7438 71.5707,18.0771 70,20.5C 66.1505,24.2071 63.3171,28.5404 61.5,33.5C 60.6365,34.463 59.9698,34.463 59.5,33.5C 64.1109,23.5599 71.1109,15.8932 80.5,10.5 Z"/></g>
<g><path style="opacity:1" fill="#8280a0" d="M 76.5,16.5 C 76.5858,17.4959 76.2524,18.3292 75.5,19C 76.7932,19.49 78.1266,19.6567 79.5,19.5C 79.5,20.5 79.5,21.5 79.5,22.5C 78.1667,22.5 76.8333,22.5 75.5,22.5C 75.718,28.0414 76.0513,33.3747 76.5,38.5C 74.9505,41.9742 73.1172,45.3076 71,48.5C 70.586,48.0426 70.086,47.7093 69.5,47.5C 68.377,56.468 67.7104,65.468 67.5,74.5C 65.8008,74.6602 64.1341,74.4935 62.5,74C 61.244,73.5831 60.5774,72.7498 60.5,71.5C 62.5323,70.9522 63.5323,69.6188 63.5,67.5C 62.1667,67.5 60.8333,67.5 59.5,67.5C 59.5,63.5 59.5,59.5 59.5,55.5C 60.8333,55.5 62.1667,55.5 63.5,55.5C 63.5,54.1667 63.5,52.8333 63.5,51.5C 60.9208,51.9167 58.7542,51.25 57,49.5C 56.5348,50.9308 55.7014,52.0975 54.5,53C 55.4764,59.0758 55.8097,65.2424 55.5,71.5C 52.9214,71.3939 50.588,72.0605 48.5,73.5C 49.2209,70.1825 49.3876,66.8492 49,63.5C 48.7216,64.4158 48.2216,65.0825 47.5,65.5C 49.7548,60.649 51.7548,55.649 53.5,50.5C 56.7957,45.2637 60.129,39.9304 63.5,34.5C 63.0431,33.7025 62.3764,33.3691 61.5,33.5C 63.3171,28.5404 66.1505,24.2071 70,20.5C 71.5707,18.0771 73.7374,16.7438 76.5,16.5 Z"/></g>
<g><path style="opacity:1" fill="#998fa2" d="M 106.5,14.5 C 110.847,17.8483 114.514,21.8483 117.5,26.5C 122.823,35.4691 126.156,45.1358 127.5,55.5C 125.652,50.4887 123.486,45.4887 121,40.5C 115.224,32.9129 109.724,25.2463 104.5,17.5C 104.5,17.1667 104.5,16.8333 104.5,16.5C 105.222,16.9175 105.722,17.5842 106,18.5C 106.49,17.2068 106.657,15.8734 106.5,14.5 Z"/></g>
<g><path style="opacity:1" fill="#e7dfe1" d="M 132.5,25.5 C 134.736,29.8814 135.736,34.5481 135.5,39.5C 137.39,39.2965 138.89,39.9632 140,41.5C 140.78,44.5117 141.947,47.3451 143.5,50C 140.804,50.8039 138.304,51.9706 136,53.5C 135.751,52.376 135.251,51.376 134.5,50.5C 133.893,50.6236 133.56,50.9569 133.5,51.5C 132.039,50.3143 130.705,50.3143 129.5,51.5C 128.833,52.8333 128.167,54.1667 127.5,55.5C 126.156,45.1358 122.823,35.4691 117.5,26.5C 117.414,25.5041 117.748,24.6708 118.5,24C 115.882,22.0262 116.048,20.1929 119,18.5C 120.269,19.9047 120.769,21.5714 120.5,23.5C 123.394,23.9577 125.894,23.291 128,21.5C 129.371,23.0414 130.871,24.3747 132.5,25.5 Z"/></g>
<g><path style="opacity:1" fill="#e1d9de" d="M 102.5,16.5 C 101.789,23.0094 100.289,29.3427 98,35.5C 97.0255,33.1224 96.3589,33.4557 96,36.5C 95.0642,40.1135 94.5642,43.7802 94.5,47.5C 92.076,47.8076 89.7427,47.4742 87.5,46.5C 86.8728,45.5832 86.5394,44.5832 86.5,43.5C 87.993,35.1757 91.1597,27.509 96,20.5C 97.5707,18.0771 99.7374,16.7438 102.5,16.5 Z"/></g>
<g><path style="opacity:1" fill="#b1a5ba" d="M 168.5,13.5 C 167.611,15.736 166.278,17.736 164.5,19.5C 166.695,20.7691 168.861,20.7691 171,19.5C 170,21.5 169,23.5 168,25.5C 171.033,27.123 174.2,28.4563 177.5,29.5C 172.91,31.7621 168.91,34.7621 165.5,38.5C 166.803,40.9371 168.47,43.1038 170.5,45C 169.5,45.3333 168.5,45.6667 167.5,46C 169.646,50.3067 172.646,53.8067 176.5,56.5C 173.564,57.4058 170.564,58.0725 167.5,58.5C 165.847,53.8547 164.181,49.188 162.5,44.5C 161.702,44.9569 161.369,45.6236 161.5,46.5C 160.609,47.1098 159.609,47.4431 158.5,47.5C 157.656,43.9009 157.323,40.2343 157.5,36.5C 158.317,38.9686 158.817,41.6353 159,44.5C 159.333,44.1667 159.667,43.8333 160,43.5C 161.368,35.0966 159.535,27.43 154.5,20.5C 158.91,17.6284 163.577,15.2951 168.5,13.5 Z"/></g>
<g><path style="opacity:1" fill="#8f91a7" d="M 16.5,15.5 C 12.9855,21.2716 9.31883,26.9383 5.5,32.5C 4.88258,32.6107 4.38258,32.944 4,33.5C 2.96951,37.7727 2.30284,42.106 2,46.5C 0.879307,73.1553 0.379307,99.822 0.5,126.5C 0.5,126.833 0.5,127.167 0.5,127.5C 0.166667,127.5 -0.166667,127.5 -0.5,127.5C -0.5,100.167 -0.5,72.8333 -0.5,45.5C 0.635959,37.6311 3.30263,30.2978 7.5,23.5C 10.0806,20.3118 13.0806,17.6451 16.5,15.5 Z"/></g>
<g><path style="opacity:1" fill="#e5d8df" d="M 104.5,17.5 C 109.724,25.2463 115.224,32.9129 121,40.5C 123.486,45.4887 125.652,50.4887 127.5,55.5C 127.351,56.552 127.517,57.552 128,58.5C 133.084,66.0683 137.917,73.735 142.5,81.5C 142.378,84.2921 141.044,86.2921 138.5,87.5C 137.171,83.226 135.671,78.8927 134,74.5C 134.271,80.0055 135.105,85.3388 136.5,90.5C 135.375,91.6522 135.375,92.6522 136.5,93.5C 135.833,94.1667 135.167,94.8333 134.5,95.5C 134.649,96.552 134.483,97.552 134,98.5C 131.833,96.1698 130.166,93.5032 129,90.5C 127.921,86.071 126.754,81.4044 125.5,76.5C 124.081,64.4904 121.248,52.8238 117,41.5C 119.7,52.4854 121.867,63.652 123.5,75C 121.691,76.4496 120.691,78.9496 120.5,82.5C 116.726,81.0139 113.059,81.1805 109.5,83C 110.793,83.49 112.127,83.6567 113.5,83.5C 112.941,87.8526 112.275,92.186 111.5,96.5C 109.039,93.6725 106.872,90.0058 105,85.5C 100.859,72.4166 99.5257,59.0832 101,45.5C 100.119,48.6469 98.9528,51.6469 97.5,54.5C 95.8008,54.6602 94.1341,54.4935 92.5,54C 93.914,52.0065 94.914,49.8398 95.5,47.5C 99.4415,37.7231 102.442,27.7231 104.5,17.5 Z"/></g>
<g><path style="opacity:1" fill="#7a7a9b" d="M 58.5,12.5 C 58.3893,13.1174 58.056,13.6174 57.5,14C 59.235,14.6514 60.9017,14.4847 62.5,13.5C 63.487,16.7683 63.8204,20.1016 63.5,23.5C 61.139,23.6741 58.8056,24.0074 56.5,24.5C 56.6621,26.5273 56.4955,28.5273 56,30.5C 54.6439,31.3802 53.1439,31.7135 51.5,31.5C 50.5689,35.619 50.7356,39.619 52,43.5C 53.1934,41.3949 54.8601,39.7282 57,38.5C 56.3661,42.5775 55.1994,46.5775 53.5,50.5C 51.7548,55.649 49.7548,60.649 47.5,65.5C 46.8254,69.8631 44.1587,71.8631 39.5,71.5C 39.5,68.8333 39.5,66.1667 39.5,63.5C 36.2869,63.81 33.2869,63.4767 30.5,62.5C 31.3829,58.772 32.2162,55.1053 33,51.5C 26.4645,63.9842 20.6311,76.6509 15.5,89.5C 16.2527,84.663 17.5861,79.9963 19.5,75.5C 21.7389,71.3509 23.7389,67.0175 25.5,62.5C 28.9095,56.0117 32.0762,49.345 35,42.5C 39.1874,36.1097 43.354,29.7764 47.5,23.5C 50.1667,18.8333 53.8333,15.1667 58.5,12.5 Z"/></g>
<g><path style="opacity:1" fill="#e6dbe1" d="M 157.5,36.5 C 157.323,40.2343 157.656,43.9009 158.5,47.5C 157.25,47.4226 156.417,46.756 156,45.5C 155.764,43.236 155.264,41.0693 154.5,39C 152.249,39.2068 149.915,39.3735 147.5,39.5C 147.5,38.1667 147.5,36.8333 147.5,35.5C 146.167,35.5 144.833,35.5 143.5,35.5C 143.5,34.1667 143.5,32.8333 143.5,31.5C 143.337,29.1432 143.503,26.8098 144,24.5C 145.399,23.7734 146.899,23.2734 148.5,23C 146.466,19.1147 143.466,16.6147 139.5,15.5C 139.756,13.0876 138.756,11.4209 136.5,10.5C 133.579,11.4066 130.579,11.7399 127.5,11.5C 127.5,10.5 127.5,9.5 127.5,8.5C 126.167,8.5 124.833,8.5 123.5,8.5C 123.52,10.143 122.853,11.4763 121.5,12.5C 122.274,13.7112 123.107,13.7112 124,12.5C 127.352,16.5486 130.185,20.8819 132.5,25.5C 130.871,24.3747 129.371,23.0414 128,21.5C 125.894,23.291 123.394,23.9577 120.5,23.5C 120.769,21.5714 120.269,19.9047 119,18.5C 116.048,20.1929 115.882,22.0262 118.5,24C 117.748,24.6708 117.414,25.5041 117.5,26.5C 114.514,21.8483 110.847,17.8483 106.5,14.5C 105.602,13.8423 104.602,13.1757 103.5,12.5C 104.852,11.4756 106.185,10.4756 107.5,9.5C 110.525,9.87687 113.525,10.0435 116.5,10C 114.5,9.16667 112.5,8.33333 110.5,7.5C 110.833,7.16667 111.167,6.83333 111.5,6.5C 117.32,4.47779 123.32,3.97779 129.5,5C 143.579,11.3508 152.912,21.8508 157.5,36.5 Z"/></g>
<g><path style="opacity:1" fill="#c4bac1" d="M 104.5,16.5 C 104.5,16.8333 104.5,17.1667 104.5,17.5C 102.442,27.7231 99.4415,37.7231 95.5,47.5C 95.1667,47.5 94.8333,47.5 94.5,47.5C 94.5642,43.7802 95.0642,40.1135 96,36.5C 96.3589,33.4557 97.0255,33.1224 98,35.5C 100.289,29.3427 101.789,23.0094 102.5,16.5C 103.167,15.1667 103.833,15.1667 104.5,16.5 Z"/></g>
<g><path style="opacity:1" fill="#f0e9e6" d="M 168.5,13.5 C 168.833,13.5 169.167,13.5 169.5,13.5C 170.074,14.5281 170.407,15.5281 170.5,16.5C 173.966,15.9231 177.299,14.9231 180.5,13.5C 181.648,15.1487 182.981,16.6487 184.5,18C 185.749,18.7401 186.749,18.5735 187.5,17.5C 190.502,20.1612 192.502,23.4945 193.5,27.5C 192.174,31.4895 190.84,35.4895 189.5,39.5C 188.069,40.7804 187.402,42.4471 187.5,44.5C 189.355,44.272 190.188,44.9387 190,46.5C 188.152,49.0414 185.652,50.0414 182.5,49.5C 182.5,51.5 182.5,53.5 182.5,55.5C 182.649,56.552 182.483,57.552 182,58.5C 181.329,57.7476 180.496,57.4142 179.5,57.5C 178.391,57.4431 177.391,57.1098 176.5,56.5C 172.646,53.8067 169.646,50.3067 167.5,46C 168.5,45.6667 169.5,45.3333 170.5,45C 168.47,43.1038 166.803,40.9371 165.5,38.5C 168.91,34.7621 172.91,31.7621 177.5,29.5C 174.2,28.4563 171.033,27.123 168,25.5C 169,23.5 170,21.5 171,19.5C 168.861,20.7691 166.695,20.7691 164.5,19.5C 166.278,17.736 167.611,15.736 168.5,13.5 Z"/></g>
<g><path style="opacity:1" fill="#5c5467" d="M 193.5,27.5 C 196.048,30.9961 197.381,34.9961 197.5,39.5C 194.523,39.6845 191.856,39.6845 189.5,39.5C 190.84,35.4895 192.174,31.4895 193.5,27.5 Z"/></g>
<g><path style="opacity:1" fill="#e9d9df" d="M 132.5,25.5 C 135.044,26.7079 136.378,28.7079 136.5,31.5C 138.833,31.5 141.167,31.5 143.5,31.5C 143.5,32.8333 143.5,34.1667 143.5,35.5C 144.833,35.5 146.167,35.5 147.5,35.5C 147.5,36.8333 147.5,38.1667 147.5,39.5C 149.915,39.3735 152.249,39.2068 154.5,39C 155.264,41.0693 155.764,43.236 156,45.5C 156.417,46.756 157.25,47.4226 158.5,47.5C 159.609,47.4431 160.609,47.1098 161.5,46.5C 161.5,46.8333 161.5,47.1667 161.5,47.5C 161.607,49.3786 161.107,49.7119 160,48.5C 159.503,50.8098 159.337,53.1432 159.5,55.5C 154.238,55.1953 149.072,55.5286 144,56.5C 143,55.5 142,54.5 141,53.5C 140.317,56.6923 140.651,60.0256 142,63.5C 143.067,64.9431 144.234,66.2764 145.5,67.5C 145.145,68.5223 144.478,69.189 143.5,69.5C 142.833,69.1667 142.167,68.8333 141.5,68.5C 141.672,67.5084 141.338,66.8417 140.5,66.5C 139.258,62.3447 137.258,58.678 134.5,55.5C 134.167,54.1667 133.833,52.8333 133.5,51.5C 133.56,50.9569 133.893,50.6236 134.5,50.5C 135.251,51.376 135.751,52.376 136,53.5C 138.304,51.9706 140.804,50.8039 143.5,50C 141.947,47.3451 140.78,44.5117 140,41.5C 138.89,39.9632 137.39,39.2965 135.5,39.5C 135.736,34.5481 134.736,29.8814 132.5,25.5 Z"/></g>
<g><path style="opacity:1" fill="#e2d5dd" d="M 86.5,43.5 C 86.5394,44.5832 86.8728,45.5832 87.5,46.5C 89.7427,47.4742 92.076,47.8076 94.5,47.5C 94.8333,47.5 95.1667,47.5 95.5,47.5C 94.914,49.8398 93.914,52.0065 92.5,54C 94.1341,54.4935 95.8008,54.6602 97.5,54.5C 94.256,66.3372 87.5893,75.6705 77.5,82.5C 76.9816,79.3913 76.6482,75.8913 76.5,72C 77.0476,63.7434 77.8809,55.5767 79,47.5C 74.5754,59.4397 72.242,71.7731 72,84.5C 71.2828,85.0442 70.7828,85.7109 70.5,86.5C 68.7501,82.8171 68.0834,78.8171 68.5,74.5C 69.5199,53.4671 77.3532,35.4671 92,20.5C 88.774,26.6726 86.4407,33.3393 85,40.5C 84.3333,42.5 84.3333,44.5 85,46.5C 85.2321,45.2625 85.7321,44.2625 86.5,43.5 Z"/></g>
<g><path style="opacity:1" fill="#827ca1" d="M 60.5,71.5 C 59.0222,71.238 57.6888,71.5713 56.5,72.5C 55.6268,76.1985 54.6268,79.8652 53.5,83.5C 51.674,83.0798 49.674,83.0798 47.5,83.5C 48.2071,80.2139 48.5405,76.8806 48.5,73.5C 50.588,72.0605 52.9214,71.3939 55.5,71.5C 55.8097,65.2424 55.4764,59.0758 54.5,53C 55.7014,52.0975 56.5348,50.9308 57,49.5C 58.7542,51.25 60.9208,51.9167 63.5,51.5C 63.5,52.8333 63.5,54.1667 63.5,55.5C 62.1667,55.5 60.8333,55.5 59.5,55.5C 59.5,59.5 59.5,63.5 59.5,67.5C 60.8333,67.5 62.1667,67.5 63.5,67.5C 63.5323,69.6188 62.5323,70.9522 60.5,71.5 Z"/></g>
<g><path style="opacity:1" fill="#9d9ab5" d="M 193.5,63.5 C 192.069,64.7804 191.402,66.4471 191.5,68.5C 188.803,67.9939 186.636,66.6606 185,64.5C 184.501,60.5138 184.334,56.5138 184.5,52.5C 186.39,52.7035 187.89,52.0368 189,50.5C 191.094,48.0787 192.76,45.412 194,42.5C 195.569,43.714 196.402,45.3807 196.5,47.5C 195.753,52.901 194.753,58.2343 193.5,63.5 Z"/></g>
<g><path style="opacity:1" fill="#e7dbe0" d="M 161.5,47.5 C 162.479,50.6248 162.813,53.9581 162.5,57.5C 162.187,61.0419 162.521,64.3752 163.5,67.5C 163.5,71.5 163.5,75.5 163.5,79.5C 163.657,80.8734 163.49,82.2068 163,83.5C 162.765,79.68 161.932,76.0133 160.5,72.5C 158.133,71.178 156.467,71.8447 155.5,74.5C 153.095,75.3981 151.095,76.8981 149.5,79C 148.563,79.6917 147.897,79.525 147.5,78.5C 147.665,74.8183 147.499,71.1516 147,67.5C 146.784,69.3839 146.117,71.0506 145,72.5C 143.961,71.7562 143.461,70.7562 143.5,69.5C 144.478,69.189 145.145,68.5223 145.5,67.5C 144.234,66.2764 143.067,64.9431 142,63.5C 140.651,60.0256 140.317,56.6923 141,53.5C 142,54.5 143,55.5 144,56.5C 149.072,55.5286 154.238,55.1953 159.5,55.5C 159.337,53.1432 159.503,50.8098 160,48.5C 161.107,49.7119 161.607,49.3786 161.5,47.5 Z"/></g>
<g><path style="opacity:1" fill="#998a9c" d="M 176.5,56.5 C 177.391,57.1098 178.391,57.4431 179.5,57.5C 181.031,58.9245 180.698,59.5912 178.5,59.5C 177.833,62.8333 177.167,66.1667 176.5,69.5C 176.423,65.8539 175.423,62.5206 173.5,59.5C 172.167,60.5 170.833,61.5 169.5,62.5C 167.562,59.9211 165.729,59.9211 164,62.5C 163.802,60.6183 163.302,58.9516 162.5,57.5C 162.813,53.9581 162.479,50.6248 161.5,47.5C 161.5,47.1667 161.5,46.8333 161.5,46.5C 161.369,45.6236 161.702,44.9569 162.5,44.5C 164.181,49.188 165.847,53.8547 167.5,58.5C 170.564,58.0725 173.564,57.4058 176.5,56.5 Z"/></g>
<g><path style="opacity:1" fill="#76708e" d="M 199.5,49.5 C 199.5,51.5 199.5,53.5 199.5,55.5C 197.753,56.9807 196.586,58.9807 196,61.5C 194.862,65.121 194.028,68.7876 193.5,72.5C 195.858,72.7475 197.858,72.0808 199.5,70.5C 199.5,71.1667 199.5,71.8333 199.5,72.5C 196.806,73.8588 194.139,74.1921 191.5,73.5C 190.833,73.5 190.5,73.1667 190.5,72.5C 191.234,71.2921 191.567,69.9587 191.5,68.5C 191.402,66.4471 192.069,64.7804 193.5,63.5C 195.316,58.7058 197.316,54.0391 199.5,49.5 Z"/></g>
<g><path style="opacity:1" fill="#adb9c0" d="M 134.5,55.5 C 137.258,58.678 139.258,62.3447 140.5,66.5C 137.742,63.322 135.742,59.6553 134.5,55.5 Z"/></g>
<g><path style="opacity:1" fill="#cfbfc6" d="M 125.5,76.5 C 124.835,78.6979 124.168,81.0312 123.5,83.5C 122.719,82.2713 122.219,80.938 122,79.5C 121.768,80.7375 121.268,81.7375 120.5,82.5C 120.691,78.9496 121.691,76.4496 123.5,75C 121.867,63.652 119.7,52.4854 117,41.5C 121.248,52.8238 124.081,64.4904 125.5,76.5 Z"/></g>
<g><path style="opacity:1" fill="#948e9e" d="M 129.5,51.5 C 134.162,61.4937 139.329,71.1603 145,80.5C 145.309,83.9669 144.476,84.3002 142.5,81.5C 137.917,73.735 133.084,66.0683 128,58.5C 127.517,57.552 127.351,56.552 127.5,55.5C 128.167,54.1667 128.833,52.8333 129.5,51.5 Z"/></g>
<g><path style="opacity:1" fill="#807ea2" d="M 30.5,62.5 C 33.2869,63.4767 36.2869,63.81 39.5,63.5C 39.5,66.1667 39.5,68.8333 39.5,71.5C 44.1587,71.8631 46.8254,69.8631 47.5,65.5C 44.9858,78.8246 44.9858,92.1579 47.5,105.5C 48.2186,107.764 48.552,110.097 48.5,112.5C 47.8826,112.389 47.3826,112.056 47,111.5C 46.6667,114.167 46.3333,116.833 46,119.5C 45.0299,110.43 43.6965,101.43 42,92.5C 37.6352,101.151 36.6352,110.151 39,119.5C 41.3159,126.126 44.1492,132.46 47.5,138.5C 45.9177,138.525 44.251,138.691 42.5,139C 40.169,135.853 38.5023,132.353 37.5,128.5C 36.302,128.06 35.1353,127.727 34,127.5C 30.8124,117.094 29.6457,106.427 30.5,95.5C 28.1432,95.6633 25.8098,95.4966 23.5,95C 27.1281,91.1695 28.2948,86.6695 27,81.5C 26.2208,84.0972 25.7208,84.0972 25.5,81.5C 26.4296,74.8637 28.0962,68.5304 30.5,62.5 Z"/></g>
<g><path style="opacity:1" fill="#5e5875" d="M 199.5,55.5 C 199.5,60.5 199.5,65.5 199.5,70.5C 197.858,72.0808 195.858,72.7475 193.5,72.5C 194.028,68.7876 194.862,65.121 196,61.5C 196.586,58.9807 197.753,56.9807 199.5,55.5 Z"/></g>
<g><path style="opacity:1" fill="#928ca0" d="M 189.5,39.5 C 191.856,39.6845 194.523,39.6845 197.5,39.5C 198.167,41.5 198.833,43.5 199.5,45.5C 199.5,46.8333 199.5,48.1667 199.5,49.5C 197.316,54.0391 195.316,58.7058 193.5,63.5C 194.753,58.2343 195.753,52.901 196.5,47.5C 196.402,45.3807 195.569,43.714 194,42.5C 192.76,45.412 191.094,48.0787 189,50.5C 187.89,52.0368 186.39,52.7035 184.5,52.5C 184.334,56.5138 184.501,60.5138 185,64.5C 186.636,66.6606 188.803,67.9939 191.5,68.5C 191.567,69.9587 191.234,71.2921 190.5,72.5C 188.209,71.0489 186.043,69.3822 184,67.5C 183.824,63.3123 183.324,59.3123 182.5,55.5C 182.5,53.5 182.5,51.5 182.5,49.5C 185.652,50.0414 188.152,49.0414 190,46.5C 190.188,44.9387 189.355,44.272 187.5,44.5C 187.402,42.4471 188.069,40.7804 189.5,39.5 Z"/></g>
<g><path style="opacity:1" fill="#6f7190" d="M 5.5,32.5 C 3.93493,40.0747 3.26826,47.7414 3.5,55.5C 2.68727,78.1239 2.18727,100.791 2,123.5C 1.76791,124.737 1.26791,125.737 0.5,126.5C 0.379307,99.822 0.879307,73.1553 2,46.5C 2.30284,42.106 2.96951,37.7727 4,33.5C 4.38258,32.944 4.88258,32.6107 5.5,32.5 Z"/></g>
<g><path style="opacity:1" fill="#867c98" d="M 60.5,71.5 C 60.5774,72.7498 61.244,73.5831 62.5,74C 64.1341,74.4935 65.8008,74.6602 67.5,74.5C 67.8333,74.5 68.1667,74.5 68.5,74.5C 68.0834,78.8171 68.7501,82.8171 70.5,86.5C 70.8333,88.5 71.1667,90.5 71.5,92.5C 67.9846,90.3803 64.3179,88.7137 60.5,87.5C 61.3764,87.6309 62.0431,87.2975 62.5,86.5C 61.134,83.3075 60.3007,79.9742 60,76.5C 59.586,76.0426 59.086,75.7093 58.5,75.5C 57.1683,79.1611 55.835,82.8278 54.5,86.5C 54.9569,87.2975 55.6236,87.6309 56.5,87.5C 54.9724,88.3092 53.3057,88.9759 51.5,89.5C 50.1667,89.5 48.8333,89.5 47.5,89.5C 47.5,87.5 47.5,85.5 47.5,83.5C 49.674,83.0798 51.674,83.0798 53.5,83.5C 54.6268,79.8652 55.6268,76.1985 56.5,72.5C 57.6888,71.5713 59.0222,71.238 60.5,71.5 Z"/></g>
<g><path style="opacity:1" fill="#948593" d="M 111.5,96.5 C 112.715,97.779 112.382,98.779 110.5,99.5C 108.167,94.8333 105.833,90.1667 103.5,85.5C 101.364,79.2892 99.6973,72.9558 98.5,66.5C 98.6633,64.1432 98.4966,61.8098 98,59.5C 96.2347,62.0321 94.7347,64.6987 93.5,67.5C 90.6215,72.9107 87.4548,78.244 84,83.5C 82.0281,85.2318 79.8614,86.5652 77.5,87.5C 74.849,85.866 74.849,84.1994 77.5,82.5C 87.5893,75.6705 94.256,66.3372 97.5,54.5C 98.9528,51.6469 100.119,48.6469 101,45.5C 99.5257,59.0832 100.859,72.4166 105,85.5C 106.872,90.0058 109.039,93.6725 111.5,96.5 Z"/></g>
<g><path style="opacity:1" fill="#c2aeb9" d="M 98.5,66.5 C 97.8333,70.8333 97.1667,75.1667 96.5,79.5C 96.6621,77.4727 96.4955,75.4727 96,73.5C 95.5026,76.146 95.3359,78.8127 95.5,81.5C 94.6981,80.0484 94.1981,78.3817 94,76.5C 93.5014,80.1516 93.3347,83.8183 93.5,87.5C 92.6618,87.1583 92.3284,86.4916 92.5,85.5C 92.6199,83.2655 92.2865,81.0989 91.5,79C 93.1784,76.8018 94.1784,74.3018 94.5,71.5C 94.4892,69.9549 94.1558,68.6216 93.5,67.5C 94.7347,64.6987 96.2347,62.0321 98,59.5C 98.4966,61.8098 98.6633,64.1432 98.5,66.5 Z"/></g>
<g><path style="opacity:1" fill="#c1c0c9" d="M 147.5,78.5 C 144.498,75.8388 142.498,72.5055 141.5,68.5C 142.167,68.8333 142.833,69.1667 143.5,69.5C 143.461,70.7562 143.961,71.7562 145,72.5C 146.117,71.0506 146.784,69.3839 147,67.5C 147.499,71.1516 147.665,74.8183 147.5,78.5 Z"/></g>
<g><path style="opacity:1" fill="#a09ab0" d="M 199.5,72.5 C 199.5,74.8333 199.5,77.1667 199.5,79.5C 196.011,78.6872 193.344,76.6872 191.5,73.5C 194.139,74.1921 196.806,73.8588 199.5,72.5 Z"/></g>
<g><path style="opacity:1" fill="#6a6485" d="M 48.5,73.5 C 48.5405,76.8806 48.2071,80.2139 47.5,83.5C 47.5,85.5 47.5,87.5 47.5,89.5C 48.8333,89.5 50.1667,89.5 51.5,89.5C 50.7375,90.2679 49.7375,90.7679 48.5,91C 49.056,91.3826 49.3893,91.8826 49.5,92.5C 48.5184,95.9619 48.185,99.6286 48.5,103.5C 48.6716,104.492 48.3382,105.158 47.5,105.5C 44.9858,92.1579 44.9858,78.8246 47.5,65.5C 48.2216,65.0825 48.7216,64.4158 49,63.5C 49.3876,66.8492 49.2209,70.1825 48.5,73.5 Z"/></g>
<g><path style="opacity:1" fill="#c0a5b2" d="M 60.5,87.5 C 59.0357,86.5946 57.7024,86.5946 56.5,87.5C 55.6236,87.6309 54.9569,87.2975 54.5,86.5C 55.835,82.8278 57.1683,79.1611 58.5,75.5C 59.086,75.7093 59.586,76.0426 60,76.5C 60.3007,79.9742 61.134,83.3075 62.5,86.5C 62.0431,87.2975 61.3764,87.6309 60.5,87.5 Z"/></g>
<g><path style="opacity:1" fill="#b8e3e2" d="M 133.5,51.5 C 133.833,52.8333 134.167,54.1667 134.5,55.5C 135.742,59.6553 137.742,63.322 140.5,66.5C 141.338,66.8417 141.672,67.5084 141.5,68.5C 142.498,72.5055 144.498,75.8388 147.5,78.5C 147.897,79.525 148.563,79.6917 149.5,79C 151.095,76.8981 153.095,75.3981 155.5,74.5C 156.583,74.4606 157.583,74.1272 158.5,73.5C 159.521,74.0016 159.688,74.6683 159,75.5C 155.038,77.7184 151.871,80.7184 149.5,84.5C 153.114,90.7291 156.447,97.0624 159.5,103.5C 157.807,102.525 156.307,101.192 155,99.5C 153.643,96.1019 151.81,93.1019 149.5,90.5C 149.205,88.5767 148.372,86.9101 147,85.5C 143.624,88.3826 140.124,91.0493 136.5,93.5C 135.375,92.6522 135.375,91.6522 136.5,90.5C 137.906,90.0269 138.573,89.0269 138.5,87.5C 141.044,86.2921 142.378,84.2921 142.5,81.5C 144.476,84.3002 145.309,83.9669 145,80.5C 139.329,71.1603 134.162,61.4937 129.5,51.5C 130.705,50.3143 132.039,50.3143 133.5,51.5 Z"/></g>
<g><path style="opacity:1" fill="#e2d2da" d="M 182.5,55.5 C 183.324,59.3123 183.824,63.3123 184,67.5C 186.043,69.3822 188.209,71.0489 190.5,72.5C 190.5,73.1667 190.833,73.5 191.5,73.5C 193.344,76.6872 196.011,78.6872 199.5,79.5C 199.5,83.1667 199.5,86.8333 199.5,90.5C 198.687,88.7392 197.687,87.0725 196.5,85.5C 194.364,79.857 190.864,75.1904 186,71.5C 185.849,77.5281 187.682,82.8614 191.5,87.5C 193.472,91.1051 196.139,94.1051 199.5,96.5C 199.5,98.5 199.5,100.5 199.5,102.5C 197.771,101.883 196.271,100.883 195,99.5C 190.335,93.1687 187.002,86.1687 185,78.5C 185.527,88.5785 188.361,97.9118 193.5,106.5C 193.5,106.833 193.5,107.167 193.5,107.5C 193.649,108.552 193.483,109.552 193,110.5C 192.667,110.167 192.333,109.833 192,109.5C 190.246,111.25 188.079,111.917 185.5,111.5C 185.322,108.784 184.822,106.117 184,103.5C 183.133,108.873 182.3,113.54 181.5,117.5C 181.494,98.1038 180.494,78.7705 178.5,59.5C 180.698,59.5912 181.031,58.9245 179.5,57.5C 180.496,57.4142 181.329,57.7476 182,58.5C 182.483,57.552 182.649,56.552 182.5,55.5 Z"/></g>
<g><path style="opacity:1" fill="#978ea4" d="M 196.5,85.5 C 194.597,85.7959 192.93,86.4625 191.5,87.5C 187.682,82.8614 185.849,77.5281 186,71.5C 190.864,75.1904 194.364,79.857 196.5,85.5 Z"/></g>
<g><path style="opacity:1" fill="#d8c0c4" d="M 98.5,66.5 C 99.6973,72.9558 101.364,79.2892 103.5,85.5C 101.827,84.657 100.66,83.3237 100,81.5C 99.8707,84.3037 100.204,86.9703 101,89.5C 99.0162,86.3812 97.5162,83.0478 96.5,79.5C 97.1667,75.1667 97.8333,70.8333 98.5,66.5 Z"/></g>
<g><path style="opacity:1" fill="#9a8a94" d="M 138.5,87.5 C 138.573,89.0269 137.906,90.0269 136.5,90.5C 135.105,85.3388 134.271,80.0055 134,74.5C 135.671,78.8927 137.171,83.226 138.5,87.5 Z"/></g>
<g><path style="opacity:1" fill="#e7d8de" d="M 120.5,83.5 C 120.5,83.8333 120.5,84.1667 120.5,84.5C 114.825,100.688 112.825,100.355 114.5,83.5C 116.5,83.5 118.5,83.5 120.5,83.5 Z"/></g>
<g><path style="opacity:1" fill="#e7d8de" d="M 162.5,57.5 C 163.302,58.9516 163.802,60.6183 164,62.5C 165.729,59.9211 167.562,59.9211 169.5,62.5C 170.833,61.5 172.167,60.5 173.5,59.5C 175.423,62.5206 176.423,65.8539 176.5,69.5C 179.678,84.8517 180.678,100.185 179.5,115.5C 178.167,115.5 176.833,115.5 175.5,115.5C 175.649,116.552 175.483,117.552 175,118.5C 174.9,115.563 174.067,112.896 172.5,110.5C 173.167,109.833 173.833,109.167 174.5,108.5C 173.167,107.167 173.167,105.833 174.5,104.5C 172.752,97.7037 171.919,90.7037 172,83.5C 171.696,87.5483 171.196,91.5483 170.5,95.5C 170.246,100.444 169.246,105.111 167.5,109.5C 166.185,94.3298 165.018,78.9965 164,63.5C 163.51,64.7932 163.343,66.1266 163.5,67.5C 162.521,64.3752 162.187,61.0419 162.5,57.5 Z"/></g>
<g><path style="opacity:1" fill="#e4d5da" d="M 93.5,67.5 C 94.1558,68.6216 94.4892,69.9549 94.5,71.5C 94.1784,74.3018 93.1784,76.8018 91.5,79C 92.2865,81.0989 92.6199,83.2655 92.5,85.5C 90.9174,87.5078 89.9174,89.8411 89.5,92.5C 88.7321,93.2625 88.2321,94.2625 88,95.5C 87.4888,93.1218 86.8221,90.7885 86,88.5C 85.8333,89.3333 85.6667,90.1667 85.5,91C 86.3052,96.6955 87.4718,102.196 89,107.5C 82.8284,102.154 78.9951,95.4877 77.5,87.5C 79.8614,86.5652 82.0281,85.2318 84,83.5C 87.4548,78.244 90.6215,72.9107 93.5,67.5 Z"/></g>
<g><path style="opacity:1" fill="#e0d0d3" d="M 123.5,84.5 C 126.733,89.2892 129.733,94.2892 132.5,99.5C 130.833,99.5 129.167,99.5 127.5,99.5C 125.901,99.7678 124.568,99.4345 123.5,98.5C 123.5,93.8333 123.5,89.1667 123.5,84.5 Z"/></g>
<g><path style="opacity:1" fill="#6b5e7a" d="M 196.5,85.5 C 197.687,87.0725 198.687,88.7392 199.5,90.5C 199.5,92.5 199.5,94.5 199.5,96.5C 196.139,94.1051 193.472,91.1051 191.5,87.5C 192.93,86.4625 194.597,85.7959 196.5,85.5 Z"/></g>
<g><path style="opacity:1" fill="#c4b5b9" d="M 167.5,109.5 C 167.167,110.167 166.833,110.833 166.5,111.5C 165.057,100.872 164.057,90.2058 163.5,79.5C 163.5,75.5 163.5,71.5 163.5,67.5C 163.343,66.1266 163.51,64.7932 164,63.5C 165.018,78.9965 166.185,94.3298 167.5,109.5 Z"/></g>
<g><path style="opacity:1" fill="#402d37" d="M 60.5,87.5 C 64.3179,88.7137 67.9846,90.3803 71.5,92.5C 72.1667,93.8333 73.1667,94.8333 74.5,95.5C 74.5,95.8333 74.5,96.1667 74.5,96.5C 74.5,96.8333 74.5,97.1667 74.5,97.5C 74.1667,97.5 73.8333,97.5 73.5,97.5C 70.2833,94.1502 66.4499,93.1502 62,94.5C 61.7216,93.5842 61.2216,92.9175 60.5,92.5C 58.4727,92.3379 56.4727,92.5045 54.5,93C 53.8828,95.277 53.2161,97.4437 52.5,99.5C 51.7729,97.0462 50.7729,94.7128 49.5,92.5C 49.3893,91.8826 49.056,91.3826 48.5,91C 49.7375,90.7679 50.7375,90.2679 51.5,89.5C 53.3057,88.9759 54.9724,88.3092 56.5,87.5C 57.7024,86.5946 59.0357,86.5946 60.5,87.5 Z"/></g>
<g><path style="opacity:1" fill="#c5aeb5" d="M 77.5,82.5 C 74.849,84.1994 74.849,85.866 77.5,87.5C 78.9951,95.4877 82.8284,102.154 89,107.5C 87.4718,102.196 86.3052,96.6955 85.5,91C 85.6667,90.1667 85.8333,89.3333 86,88.5C 86.8221,90.7885 87.4888,93.1218 88,95.5C 88.2321,94.2625 88.7321,93.2625 89.5,92.5C 88.4706,99.4455 90.1373,105.612 94.5,111C 94.2716,111.399 93.9382,111.565 93.5,111.5C 89.057,109.293 84.8904,106.626 81,103.5C 78.7263,99.2864 76.7263,94.9531 75,90.5C 74.5065,92.1341 74.3398,93.8008 74.5,95.5C 73.1667,94.8333 72.1667,93.8333 71.5,92.5C 71.1667,90.5 70.8333,88.5 70.5,86.5C 70.7828,85.7109 71.2828,85.0442 72,84.5C 72.242,71.7731 74.5754,59.4397 79,47.5C 77.8809,55.5767 77.0476,63.7434 76.5,72C 76.6482,75.8913 76.9816,79.3913 77.5,82.5 Z"/></g>
<g><path style="opacity:1" fill="#3f4269" d="M 25.5,62.5 C 23.7389,67.0175 21.7389,71.3509 19.5,75.5C 19.8822,68.9844 19.8822,62.3177 19.5,55.5C 16.8333,55.5 14.1667,55.5 11.5,55.5C 11.5,58.1667 11.5,60.8333 11.5,63.5C 8.8806,63.7683 6.3806,63.435 4,62.5C 3.33333,79.1667 3.33333,95.8333 4,112.5C 4.66667,116.5 5.33333,116.5 6,112.5C 6.75044,111.874 7.58377,111.374 8.5,111C 6.47448,106.643 7.64115,103.476 12,101.5C 12.0249,97.0468 13.1916,93.0468 15.5,89.5C 20.6311,76.6509 26.4645,63.9842 33,51.5C 32.2162,55.1053 31.3829,58.772 30.5,62.5C 28.0962,68.5304 26.4296,74.8637 25.5,81.5C 23.0708,89.9034 21.2375,98.5701 20,107.5C 17.8999,110.051 16.0665,112.717 14.5,115.5C 12.7499,112.645 11.9165,109.311 12,105.5C 11.6777,114.124 9.34441,122.124 5,129.5C 3.64387,130.38 2.14387,130.714 0.5,130.5C 0.5,129.5 0.5,128.5 0.5,127.5C 0.5,127.167 0.5,126.833 0.5,126.5C 1.26791,125.737 1.76791,124.737 2,123.5C 2.18727,100.791 2.68727,78.1239 3.5,55.5C 5.40503,56.5525 6.73837,55.8858 7.5,53.5C 6.49004,50.187 6.49004,46.8537 7.5,43.5C 8.83333,43.5 10.1667,43.5 11.5,43.5C 11.5,44.8333 11.5,46.1667 11.5,47.5C 15.1667,47.5 18.8333,47.5 22.5,47.5C 22.5505,51.1881 22.8838,54.8548 23.5,58.5C 23.5854,60.3328 24.2521,61.6661 25.5,62.5 Z"/></g>
<g><path style="opacity:1" fill="#3c3e69" d="M 19.5,75.5 C 17.5861,79.9963 16.2527,84.663 15.5,89.5C 13.1916,93.0468 12.0249,97.0468 12,101.5C 7.64115,103.476 6.47448,106.643 8.5,111C 7.58377,111.374 6.75044,111.874 6,112.5C 5.33333,116.5 4.66667,116.5 4,112.5C 3.33333,95.8333 3.33333,79.1667 4,62.5C 6.3806,63.435 8.8806,63.7683 11.5,63.5C 11.5,60.8333 11.5,58.1667 11.5,55.5C 14.1667,55.5 16.8333,55.5 19.5,55.5C 19.8822,62.3177 19.8822,68.9844 19.5,75.5 Z"/></g>
<g><path style="opacity:1" fill="#c3b6b4" d="M 95.5,81.5 C 96.2457,89.9184 99.579,97.0851 105.5,103C 98.8461,100.148 94.8461,94.9816 93.5,87.5C 93.3347,83.8183 93.5014,80.1516 94,76.5C 94.1981,78.3817 94.6981,80.0484 95.5,81.5 Z"/></g>
<g><path style="opacity:1" fill="#c1b1b4" d="M 120.5,82.5 C 120.5,82.8333 120.5,83.1667 120.5,83.5C 118.5,83.5 116.5,83.5 114.5,83.5C 112.825,100.355 114.825,100.688 120.5,84.5C 121.5,84.5 122.5,84.5 123.5,84.5C 123.5,89.1667 123.5,93.8333 123.5,98.5C 122.833,98.5 122.167,98.5 121.5,98.5C 122.99,94.4262 122.824,90.4262 121,86.5C 120.22,89.5117 119.053,92.3451 117.5,95C 118.672,95.4186 119.672,96.0853 120.5,97C 118.833,97.3333 117.167,97.6667 115.5,98C 116.094,98.4643 116.761,98.631 117.5,98.5C 115.343,100.896 112.677,102.563 109.5,103.5C 109.433,102.041 109.766,100.708 110.5,99.5C 112.382,98.779 112.715,97.779 111.5,96.5C 112.275,92.186 112.941,87.8526 113.5,83.5C 112.127,83.6567 110.793,83.49 109.5,83C 113.059,81.1805 116.726,81.0139 120.5,82.5 Z"/></g>
<g><path style="opacity:1" fill="#b098a2" d="M 125.5,76.5 C 126.754,81.4044 127.921,86.071 129,90.5C 130.166,93.5032 131.833,96.1698 134,98.5C 134.483,97.552 134.649,96.552 134.5,95.5C 134.833,95.5 135.167,95.5 135.5,95.5C 135.5,96.8333 135.5,98.1667 135.5,99.5C 134.5,99.5 133.5,99.5 132.5,99.5C 129.733,94.2892 126.733,89.2892 123.5,84.5C 122.5,84.5 121.5,84.5 120.5,84.5C 120.5,84.1667 120.5,83.8333 120.5,83.5C 120.5,83.1667 120.5,82.8333 120.5,82.5C 121.268,81.7375 121.768,80.7375 122,79.5C 122.219,80.938 122.719,82.2713 123.5,83.5C 124.168,81.0312 124.835,78.6979 125.5,76.5 Z"/></g>
<g><path style="opacity:1" fill="#8b8894" d="M 149.5,90.5 C 148.85,90.1961 148.183,89.8627 147.5,89.5C 146.506,94.456 146.173,99.456 146.5,104.5C 145.833,99.8333 145.167,95.1667 144.5,90.5C 142.833,91.8333 141.167,93.1667 139.5,94.5C 138.292,95.2341 136.959,95.5674 135.5,95.5C 135.167,95.5 134.833,95.5 134.5,95.5C 135.167,94.8333 135.833,94.1667 136.5,93.5C 140.124,91.0493 143.624,88.3826 147,85.5C 148.372,86.9101 149.205,88.5767 149.5,90.5 Z"/></g>
<g><path style="opacity:1" fill="#eadbdd" d="M 121.5,98.5 C 120.167,98.5 118.833,98.5 117.5,98.5C 116.761,98.631 116.094,98.4643 115.5,98C 117.167,97.6667 118.833,97.3333 120.5,97C 119.672,96.0853 118.672,95.4186 117.5,95C 119.053,92.3451 120.22,89.5117 121,86.5C 122.824,90.4262 122.99,94.4262 121.5,98.5 Z"/></g>
<g><path style="opacity:1" fill="#5c709b" d="M 60.5,92.5 C 61.2216,92.9175 61.7216,93.5842 62,94.5C 66.4499,93.1502 70.2833,94.1502 73.5,97.5C 72.9569,97.56 72.6236,97.8933 72.5,98.5C 76.106,101.926 76.4393,105.593 73.5,109.5C 73.4015,106.896 72.2349,104.896 70,103.5C 67.8824,104.196 65.7158,104.363 63.5,104C 62.6198,105.356 62.2865,106.856 62.5,108.5C 59.2932,103.664 58.6265,98.3304 60.5,92.5 Z"/></g>
<g><path style="opacity:1" fill="#8e8083" d="M 74.5,96.5 C 76.982,97.8043 78.1487,99.8043 78,102.5C 76.8236,100.804 75.657,99.1376 74.5,97.5C 74.5,97.1667 74.5,96.8333 74.5,96.5 Z"/></g>
<g><path style="opacity:1" fill="#f5e8e5" d="M 96.5,79.5 C 97.5162,83.0478 99.0162,86.3812 101,89.5C 100.204,86.9703 99.8707,84.3037 100,81.5C 100.66,83.3237 101.827,84.657 103.5,85.5C 105.833,90.1667 108.167,94.8333 110.5,99.5C 109.766,100.708 109.433,102.041 109.5,103.5C 108.227,104.077 108.227,104.743 109.5,105.5C 111.429,104.62 113.263,103.62 115,102.5C 115.765,102.57 116.265,102.903 116.5,103.5C 115.883,103.611 115.383,103.944 115,104.5C 114.502,107.817 114.335,111.15 114.5,114.5C 114.5,115.833 113.833,116.5 112.5,116.5C 111.081,115.549 109.415,115.216 107.5,115.5C 107.664,112.813 107.497,110.146 107,107.5C 105.174,106.159 104.007,106.659 103.5,109C 103.645,109.772 103.978,110.439 104.5,111C 101.518,111.498 98.5184,111.665 95.5,111.5C 95.5,112.5 95.5,113.5 95.5,114.5C 94.448,114.649 93.448,114.483 92.5,114C 93.2524,113.329 93.5858,112.496 93.5,111.5C 93.9382,111.565 94.2716,111.399 94.5,111C 90.1373,105.612 88.4706,99.4455 89.5,92.5C 89.9174,89.8411 90.9174,87.5078 92.5,85.5C 92.3284,86.4916 92.6618,87.1583 93.5,87.5C 94.8461,94.9816 98.8461,100.148 105.5,103C 99.579,97.0851 96.2457,89.9184 95.5,81.5C 95.3359,78.8127 95.5026,76.146 96,73.5C 96.4955,75.4727 96.6621,77.4727 96.5,79.5 Z"/></g>
<g><path style="opacity:1" fill="#e6d5de" d="M 144.5,90.5 C 144.891,97.9209 144.391,105.254 143,112.5C 142.506,110.866 142.34,109.199 142.5,107.5C 142.443,106.391 142.11,105.391 141.5,104.5C 141.46,101.012 140.793,97.6791 139.5,94.5C 141.167,93.1667 142.833,91.8333 144.5,90.5 Z"/></g>
<g><path style="opacity:1" fill="#917c92" d="M 139.5,94.5 C 140.793,97.6791 141.46,101.012 141.5,104.5C 137.089,101.904 132.423,100.238 127.5,99.5C 129.167,99.5 130.833,99.5 132.5,99.5C 133.5,99.5 134.5,99.5 135.5,99.5C 135.5,98.1667 135.5,96.8333 135.5,95.5C 136.959,95.5674 138.292,95.2341 139.5,94.5 Z"/></g>
<g><path style="opacity:1" fill="#908b9d" d="M 149.5,90.5 C 151.81,93.1019 153.643,96.1019 155,99.5C 156.307,101.192 157.807,102.525 159.5,103.5C 159.217,104.289 158.717,104.956 158,105.5C 155.469,104.077 153.635,102.077 152.5,99.5C 151.317,96.6185 150.317,93.6185 149.5,90.5 Z"/></g>
<g><path style="opacity:1" fill="#50373c" d="M 117.5,98.5 C 118.833,98.5 120.167,98.5 121.5,98.5C 122.167,98.5 122.833,98.5 123.5,98.5C 124.568,99.4345 125.901,99.7678 127.5,99.5C 132.423,100.238 137.089,101.904 141.5,104.5C 142.11,105.391 142.443,106.391 142.5,107.5C 141.5,107.833 140.833,108.5 140.5,109.5C 139.542,109.953 138.708,110.619 138,111.5C 137.856,107.855 136.023,105.521 132.5,104.5C 131.702,104.957 131.369,105.624 131.5,106.5C 131.167,106.5 130.833,106.5 130.5,106.5C 130.5,105.833 130.167,105.5 129.5,105.5C 129.5,104.167 128.833,103.5 127.5,103.5C 124.078,101.026 120.412,101.026 116.5,103.5C 116.265,102.903 115.765,102.57 115,102.5C 113.263,103.62 111.429,104.62 109.5,105.5C 108.227,104.743 108.227,104.077 109.5,103.5C 112.677,102.563 115.343,100.896 117.5,98.5 Z"/></g>
<g><path style="opacity:1" fill="#9c899b" d="M 199.5,102.5 C 199.5,106.5 199.5,110.5 199.5,114.5C 198.5,114.167 197.833,113.5 197.5,112.5C 198.598,111.399 198.765,110.066 198,108.5C 195.833,106.17 194.166,103.503 193,100.5C 192.346,99.3044 191.846,99.3044 191.5,100.5C 192.747,102.323 193.414,104.323 193.5,106.5C 188.361,97.9118 185.527,88.5785 185,78.5C 187.002,86.1687 190.335,93.1687 195,99.5C 196.271,100.883 197.771,101.883 199.5,102.5 Z"/></g>
<g><path style="opacity:1" fill="#665468" d="M 197.5,112.5 C 196.396,110.611 195.063,108.945 193.5,107.5C 193.5,107.167 193.5,106.833 193.5,106.5C 193.414,104.323 192.747,102.323 191.5,100.5C 191.846,99.3044 192.346,99.3044 193,100.5C 194.166,103.503 195.833,106.17 198,108.5C 198.765,110.066 198.598,111.399 197.5,112.5 Z"/></g>
<g><path style="opacity:1" fill="#6273a8" d="M 127.5,103.5 C 128.833,103.5 129.5,104.167 129.5,105.5C 128.842,106.398 128.176,107.398 127.5,108.5C 126.139,108.212 124.806,107.879 123.5,107.5C 121.088,107.694 120.088,109.027 120.5,111.5C 119.167,111.5 117.833,111.5 116.5,111.5C 116.5,109.167 116.5,106.833 116.5,104.5C 120.119,103.756 123.785,103.423 127.5,103.5 Z"/></g>
<g><path style="opacity:1" fill="#887383" d="M 48.5,103.5 C 50.5083,106.236 50.8416,109.236 49.5,112.5C 50.8333,114.5 52.1667,116.5 53.5,118.5C 53.1924,119.308 52.6924,119.975 52,120.5C 51.5017,118.456 50.335,117.122 48.5,116.5C 48.5,115.167 48.5,113.833 48.5,112.5C 48.552,110.097 48.2186,107.764 47.5,105.5C 48.3382,105.158 48.6716,104.492 48.5,103.5 Z"/></g>
<g><path style="opacity:1" fill="#9ac5dc" d="M 73.5,109.5 C 73.5,109.833 73.5,110.167 73.5,110.5C 72.596,109.791 72.2627,108.791 72.5,107.5C 69.4281,107.183 66.4281,107.516 63.5,108.5C 64.1925,109.518 64.8592,110.518 65.5,111.5C 64.8333,111.5 64.1667,111.5 63.5,111.5C 62.8902,110.609 62.5569,109.609 62.5,108.5C 62.2865,106.856 62.6198,105.356 63.5,104C 65.7158,104.363 67.8824,104.196 70,103.5C 72.2349,104.896 73.4015,106.896 73.5,109.5 Z"/></g>
<g><path style="opacity:1" fill="#f7e4e4" d="M 93.5,111.5 C 93.5858,112.496 93.2524,113.329 92.5,114C 93.448,114.483 94.448,114.649 95.5,114.5C 95.5,113.5 95.5,112.5 95.5,111.5C 98.5184,111.665 101.518,111.498 104.5,111C 103.978,110.439 103.645,109.772 103.5,109C 104.007,106.659 105.174,106.159 107,107.5C 107.497,110.146 107.664,112.813 107.5,115.5C 109.415,115.216 111.081,115.549 112.5,116.5C 112.047,117.458 111.381,118.292 110.5,119C 105.511,119.499 100.511,119.666 95.5,119.5C 95.5,122.167 95.5,124.833 95.5,127.5C 98.1667,127.5 100.833,127.5 103.5,127.5C 103.5,130.167 103.5,132.833 103.5,135.5C 106.167,135.5 108.833,135.5 111.5,135.5C 111.5,138.167 111.5,140.833 111.5,143.5C 110.167,143.5 108.833,143.5 107.5,143.5C 107.5,145.833 107.5,148.167 107.5,150.5C 110.385,150.194 113.052,150.527 115.5,151.5C 113.716,151.893 112.05,152.559 110.5,153.5C 108.883,154.038 107.216,154.371 105.5,154.5C 102.121,154.112 98.7879,153.445 95.5,152.5C 98.0865,151.52 100.753,151.187 103.5,151.5C 103.5,148.833 103.5,146.167 103.5,143.5C 100.833,143.5 98.1667,143.5 95.5,143.5C 95.5,144.833 95.5,146.167 95.5,147.5C 92.8333,147.5 90.1667,147.5 87.5,147.5C 87.5,146.167 87.5,144.833 87.5,143.5C 86.1266,143.657 84.7932,143.49 83.5,143C 84.3081,142.692 84.9747,142.192 85.5,141.5C 84.8333,141.167 84.1667,140.833 83.5,140.5C 84.1667,140.167 84.8333,139.833 85.5,139.5C 87.7613,140.648 90.0946,141.148 92.5,141C 91.8333,140.667 91.1667,140.333 90.5,140C 91.366,134.924 91.6993,129.924 91.5,125C 91.3333,124.5 91.1667,124 91,123.5C 90.044,124.579 89.2106,125.745 88.5,127C 87.0563,127.781 85.723,127.614 84.5,126.5C 83.5741,122.906 83.2408,119.24 83.5,115.5C 82.1667,115.5 80.8333,115.5 79.5,115.5C 79.5,116.833 79.5,118.167 79.5,119.5C 77.1667,119.5 74.8333,119.5 72.5,119.5C 71.9987,116.133 70.832,115.8 69,118.5C 67.5,118 66,117.5 64.5,117C 64.6126,115.253 64.2793,113.42 63.5,111.5C 64.1667,111.5 64.8333,111.5 65.5,111.5C 68.3854,111.806 71.0521,111.473 73.5,110.5C 73.5,110.167 73.5,109.833 73.5,109.5C 76.4393,105.593 76.106,101.926 72.5,98.5C 72.6236,97.8933 72.9569,97.56 73.5,97.5C 73.8333,97.5 74.1667,97.5 74.5,97.5C 75.657,99.1376 76.8236,100.804 78,102.5C 78.1487,99.8043 76.982,97.8043 74.5,96.5C 74.5,96.1667 74.5,95.8333 74.5,95.5C 74.3398,93.8008 74.5065,92.1341 75,90.5C 76.7263,94.9531 78.7263,99.2864 81,103.5C 84.8904,106.626 89.057,109.293 93.5,111.5 Z"/></g>
<g><path style="opacity:1" fill="#5d637b" d="M 127.5,103.5 C 123.785,103.423 120.119,103.756 116.5,104.5C 116.5,106.833 116.5,109.167 116.5,111.5C 116.737,112.791 116.404,113.791 115.5,114.5C 115.167,114.5 114.833,114.5 114.5,114.5C 114.335,111.15 114.502,107.817 115,104.5C 115.383,103.944 115.883,103.611 116.5,103.5C 120.412,101.026 124.078,101.026 127.5,103.5 Z"/></g>
<g><path style="opacity:1" fill="#b6e6ed" d="M 73.5,110.5 C 71.0521,111.473 68.3854,111.806 65.5,111.5C 64.8592,110.518 64.1925,109.518 63.5,108.5C 66.4281,107.516 69.4281,107.183 72.5,107.5C 72.2627,108.791 72.596,109.791 73.5,110.5 Z"/></g>
<g><path style="opacity:1" fill="#d2f0f9" d="M 123.5,108.5 C 123.5,109.833 123.5,111.167 123.5,112.5C 122.105,114.054 121.439,113.721 121.5,111.5C 121.453,109.962 122.12,108.962 123.5,108.5 Z"/></g>
<g><path style="opacity:1" fill="#e0d3e1" d="M 48.5,112.5 C 48.5,113.833 48.5,115.167 48.5,116.5C 47.8968,119.041 47.8968,121.374 48.5,123.5C 48.4326,124.959 48.7659,126.292 49.5,127.5C 48.4271,129.653 48.4271,131.653 49.5,133.5C 49.6448,138.784 51.6448,143.118 55.5,146.5C 56.5063,147.396 56.5063,148.062 55.5,148.5C 51.8615,145.86 49.1948,142.527 47.5,138.5C 44.1492,132.46 41.3159,126.126 39,119.5C 36.6352,110.151 37.6352,101.151 42,92.5C 43.6965,101.43 45.0299,110.43 46,119.5C 46.3333,116.833 46.6667,114.167 47,111.5C 47.3826,112.056 47.8826,112.389 48.5,112.5 Z"/></g>
<g><path style="opacity:1" fill="#e3d3d8" d="M 163.5,79.5 C 164.057,90.2058 165.057,100.872 166.5,111.5C 166.822,116.587 167.655,121.587 169,126.5C 171.291,116.082 171.791,105.749 170.5,95.5C 171.196,91.5483 171.696,87.5483 172,83.5C 171.919,90.7037 172.752,97.7037 174.5,104.5C 173.167,105.833 173.167,107.167 174.5,108.5C 173.833,109.167 173.167,109.833 172.5,110.5C 174.067,112.896 174.9,115.563 175,118.5C 175.483,117.552 175.649,116.552 175.5,115.5C 176.833,115.5 178.167,115.5 179.5,115.5C 179.5,116.833 179.5,118.167 179.5,119.5C 178.591,126.141 176.924,132.474 174.5,138.5C 173.849,139.091 173.182,139.757 172.5,140.5C 171.239,138.547 170.073,136.547 169,134.5C 169.565,137.404 170.065,140.404 170.5,143.5C 169.167,143.5 167.833,143.5 166.5,143.5C 166.154,138.727 165.321,134.06 164,129.5C 163.505,131.473 163.338,133.473 163.5,135.5C 162.85,135.804 162.183,136.137 161.5,136.5C 160.395,140.55 159.395,144.55 158.5,148.5C 156.194,148.007 153.861,147.674 151.5,147.5C 151.5,146.167 151.5,144.833 151.5,143.5C 150.167,143.5 148.833,143.5 147.5,143.5C 147.5,144.833 147.5,146.167 147.5,147.5C 146.5,147.5 145.5,147.5 144.5,147.5C 144.579,146.07 144.246,144.736 143.5,143.5C 146.71,131.857 150.043,120.357 153.5,109C 152.637,106.773 151.637,104.607 150.5,102.5C 150.942,101.261 151.609,100.261 152.5,99.5C 153.635,102.077 155.469,104.077 158,105.5C 158.717,104.956 159.217,104.289 159.5,103.5C 156.447,97.0624 153.114,90.7291 149.5,84.5C 151.871,80.7184 155.038,77.7184 159,75.5C 159.688,74.6683 159.521,74.0016 158.5,73.5C 157.583,74.1272 156.583,74.4606 155.5,74.5C 156.467,71.8447 158.133,71.178 160.5,72.5C 161.932,76.0133 162.765,79.68 163,83.5C 163.49,82.2068 163.657,80.8734 163.5,79.5 Z"/></g>
<g><path style="opacity:1" fill="#ae9aa0" d="M 144.5,90.5 C 145.167,95.1667 145.833,99.8333 146.5,104.5C 145.861,109.696 144.861,114.696 143.5,119.5C 143.657,118.127 143.49,116.793 143,115.5C 142.814,118.036 142.314,120.369 141.5,122.5C 141.818,117.968 141.485,113.634 140.5,109.5C 140.833,108.5 141.5,107.833 142.5,107.5C 142.34,109.199 142.506,110.866 143,112.5C 144.391,105.254 144.891,97.9209 144.5,90.5 Z"/></g>
<g><path style="opacity:1" fill="#cab9be" d="M 178.5,59.5 C 180.494,78.7705 181.494,98.1038 181.5,117.5C 180.662,117.842 180.328,118.508 180.5,119.5C 180.167,119.5 179.833,119.5 179.5,119.5C 179.5,118.167 179.5,116.833 179.5,115.5C 180.678,100.185 179.678,84.8517 176.5,69.5C 177.167,66.1667 177.833,62.8333 178.5,59.5 Z"/></g>
<g><path style="opacity:1" fill="#e4d2d9" d="M 193.5,107.5 C 195.063,108.945 196.396,110.611 197.5,112.5C 197.833,113.5 198.5,114.167 199.5,114.5C 199.5,126.833 199.5,139.167 199.5,151.5C 197.246,152.124 195.579,153.457 194.5,155.5C 193.469,156.355 192.303,157.022 191,157.5C 190.235,157.43 189.735,157.097 189.5,156.5C 190.32,154.86 191.153,153.193 192,151.5C 193.348,137.918 191.348,124.918 186,112.5C 185.501,117.489 185.334,122.489 185.5,127.5C 184.167,127.5 182.833,127.5 181.5,127.5C 181.167,131.5 180.833,131.5 180.5,127.5C 180.5,124.833 180.5,122.167 180.5,119.5C 180.328,118.508 180.662,117.842 181.5,117.5C 182.3,113.54 183.133,108.873 184,103.5C 184.822,106.117 185.322,108.784 185.5,111.5C 188.079,111.917 190.246,111.25 192,109.5C 192.333,109.833 192.667,110.167 193,110.5C 193.483,109.552 193.649,108.552 193.5,107.5 Z"/></g>
<g><path style="opacity:1" fill="#f1f0f0" d="M 130.5,106.5 C 130.833,106.5 131.167,106.5 131.5,106.5C 133.525,107.475 135.191,108.975 136.5,111C 136.257,111.902 135.923,112.735 135.5,113.5C 132.799,116.606 129.965,119.606 127,122.5C 124.595,121.726 122.095,121.226 119.5,121C 118.944,120.617 118.611,120.117 118.5,119.5C 120.5,119.5 122.5,119.5 124.5,119.5C 127.038,119.882 128.871,118.549 130,115.5C 131.931,112.779 131.764,110.279 129.5,108C 129.57,107.235 129.903,106.735 130.5,106.5 Z"/></g>
<g><path style="opacity:1" fill="#998496" d="M 170.5,95.5 C 171.791,105.749 171.291,116.082 169,126.5C 167.655,121.587 166.822,116.587 166.5,111.5C 166.833,110.833 167.167,110.167 167.5,109.5C 169.246,105.111 170.246,100.444 170.5,95.5 Z"/></g>
<g><path style="opacity:1" fill="#89acc7" d="M 123.5,107.5 C 123.5,107.833 123.5,108.167 123.5,108.5C 122.12,108.962 121.453,109.962 121.5,111.5C 121.439,113.721 122.105,114.054 123.5,112.5C 125.027,112.427 126.027,113.094 126.5,114.5C 123.748,114.422 121.082,114.255 118.5,114C 117.833,115 117.167,116 116.5,117C 117.381,117.708 118.047,118.542 118.5,119.5C 115.916,118.952 114.916,117.285 115.5,114.5C 116.404,113.791 116.737,112.791 116.5,111.5C 117.833,111.5 119.167,111.5 120.5,111.5C 120.088,109.027 121.088,107.694 123.5,107.5 Z"/></g>
<g><path style="opacity:1" fill="#f8e6e1" d="M 105.5,154.5 C 101.022,156.123 96.3548,157.456 91.5,158.5C 90.1667,158.5 88.8333,158.5 87.5,158.5C 87.5,156.167 87.5,153.833 87.5,151.5C 84.9122,151.543 82.7456,152.543 81,154.5C 78.2656,153.638 78.0989,152.805 80.5,152C 79.7178,149.26 79.2178,146.426 79,143.5C 78.51,144.793 78.3433,146.127 78.5,147.5C 75.1309,146.733 72.2976,145.066 70,142.5C 70.3676,138.867 70.8676,135.2 71.5,131.5C 70.1667,131.5 68.8333,131.5 67.5,131.5C 67.5,130.167 67.5,128.833 67.5,127.5C 69.1667,127.5 70.8333,127.5 72.5,127.5C 71.7417,124.648 71.7417,121.981 72.5,119.5C 74.8333,119.5 77.1667,119.5 79.5,119.5C 79.5,118.167 79.5,116.833 79.5,115.5C 80.8333,115.5 82.1667,115.5 83.5,115.5C 83.2408,119.24 83.5741,122.906 84.5,126.5C 85.723,127.614 87.0563,127.781 88.5,127C 89.2106,125.745 90.044,124.579 91,123.5C 91.1667,124 91.3333,124.5 91.5,125C 91.6993,129.924 91.366,134.924 90.5,140C 91.1667,140.333 91.8333,140.667 92.5,141C 90.0946,141.148 87.7613,140.648 85.5,139.5C 84.8333,139.833 84.1667,140.167 83.5,140.5C 84.1667,140.833 84.8333,141.167 85.5,141.5C 84.9747,142.192 84.3081,142.692 83.5,143C 84.7932,143.49 86.1266,143.657 87.5,143.5C 87.5,144.833 87.5,146.167 87.5,147.5C 90.1667,147.5 92.8333,147.5 95.5,147.5C 95.5,146.167 95.5,144.833 95.5,143.5C 98.1667,143.5 100.833,143.5 103.5,143.5C 103.5,146.167 103.5,148.833 103.5,151.5C 100.753,151.187 98.0865,151.52 95.5,152.5C 98.7879,153.445 102.121,154.112 105.5,154.5 Z"/></g>
<g><path style="opacity:1" fill="#b5dfec" d="M 126.5,114.5 C 127.841,116.834 127.174,118.501 124.5,119.5C 122.5,119.5 120.5,119.5 118.5,119.5C 118.047,118.542 117.381,117.708 116.5,117C 117.167,116 117.833,115 118.5,114C 121.082,114.255 123.748,114.422 126.5,114.5 Z"/></g>
<g><path style="opacity:1" fill="#6b819d" d="M 129.5,105.5 C 130.167,105.5 130.5,105.833 130.5,106.5C 129.903,106.735 129.57,107.235 129.5,108C 131.764,110.279 131.931,112.779 130,115.5C 128.871,118.549 127.038,119.882 124.5,119.5C 127.174,118.501 127.841,116.834 126.5,114.5C 126.027,113.094 125.027,112.427 123.5,112.5C 123.5,111.167 123.5,109.833 123.5,108.5C 123.5,108.167 123.5,107.833 123.5,107.5C 124.806,107.879 126.139,108.212 127.5,108.5C 128.176,107.398 128.842,106.398 129.5,105.5 Z"/></g>
<g><path style="opacity:1" fill="#f8e5e0" d="M 135.5,113.5 C 136.472,114.399 137.138,115.566 137.5,117C 136.116,123.891 134.45,130.725 132.5,137.5C 131.5,138.833 130.5,140.167 129.5,141.5C 126.455,144.547 123.122,147.213 119.5,149.5C 118.167,150.167 116.833,150.833 115.5,151.5C 113.052,150.527 110.385,150.194 107.5,150.5C 107.5,148.167 107.5,145.833 107.5,143.5C 108.833,143.5 110.167,143.5 111.5,143.5C 111.5,140.833 111.5,138.167 111.5,135.5C 108.833,135.5 106.167,135.5 103.5,135.5C 103.5,132.833 103.5,130.167 103.5,127.5C 100.833,127.5 98.1667,127.5 95.5,127.5C 95.5,124.833 95.5,122.167 95.5,119.5C 100.511,119.666 105.511,119.499 110.5,119C 111.381,118.292 112.047,117.458 112.5,116.5C 113.833,116.5 114.5,115.833 114.5,114.5C 114.833,114.5 115.167,114.5 115.5,114.5C 114.916,117.285 115.916,118.952 118.5,119.5C 118.611,120.117 118.944,120.617 119.5,121C 122.095,121.226 124.595,121.726 127,122.5C 129.965,119.606 132.799,116.606 135.5,113.5 Z"/></g>
<g><path style="opacity:1" fill="#f2dfdf" d="M 60.5,92.5 C 58.6265,98.3304 59.2932,103.664 62.5,108.5C 62.5569,109.609 62.8902,110.609 63.5,111.5C 64.2793,113.42 64.6126,115.253 64.5,117C 66,117.5 67.5,118 69,118.5C 70.832,115.8 71.9987,116.133 72.5,119.5C 71.7417,121.981 71.7417,124.648 72.5,127.5C 70.8333,127.5 69.1667,127.5 67.5,127.5C 67.5,128.833 67.5,130.167 67.5,131.5C 68.8333,131.5 70.1667,131.5 71.5,131.5C 70.8676,135.2 70.3676,138.867 70,142.5C 72.2976,145.066 75.1309,146.733 78.5,147.5C 78.3433,146.127 78.51,144.793 79,143.5C 79.2178,146.426 79.7178,149.26 80.5,152C 78.0989,152.805 78.2656,153.638 81,154.5C 82.7456,152.543 84.9122,151.543 87.5,151.5C 87.5,153.833 87.5,156.167 87.5,158.5C 88.8333,158.5 90.1667,158.5 91.5,158.5C 91.5,158.833 91.5,159.167 91.5,159.5C 89.4727,159.662 87.4727,159.495 85.5,159C 83.2833,157.277 80.95,155.777 78.5,154.5C 78.1667,154.5 77.8333,154.5 77.5,154.5C 77.1667,153.833 76.8333,153.167 76.5,152.5C 70.1477,146.976 64.6477,140.643 60,133.5C 56.2111,122.355 53.7111,111.022 52.5,99.5C 53.2161,97.4437 53.8828,95.277 54.5,93C 56.4727,92.5045 58.4727,92.3379 60.5,92.5 Z"/></g>
<g><path style="opacity:1" fill="#896977" d="M 143.5,119.5 C 143.167,122.167 142.833,124.833 142.5,127.5C 141.105,129.054 140.439,128.721 140.5,126.5C 140.846,125.151 141.179,123.817 141.5,122.5C 142.314,120.369 142.814,118.036 143,115.5C 143.49,116.793 143.657,118.127 143.5,119.5 Z"/></g>
<g><path style="opacity:1" fill="#deb7bc" d="M 140.5,109.5 C 141.485,113.634 141.818,117.968 141.5,122.5C 141.179,123.817 140.846,125.151 140.5,126.5C 140.439,128.721 141.105,129.054 142.5,127.5C 141.247,130.767 140.247,134.101 139.5,137.5C 137.833,137.5 136.167,137.5 134.5,137.5C 133.833,137.5 133.167,137.5 132.5,137.5C 134.45,130.725 136.116,123.891 137.5,117C 137.138,115.566 136.472,114.399 135.5,113.5C 135.923,112.735 136.257,111.902 136.5,111C 135.191,108.975 133.525,107.475 131.5,106.5C 131.369,105.624 131.702,104.957 132.5,104.5C 136.023,105.521 137.856,107.855 138,111.5C 138.708,110.619 139.542,109.953 140.5,109.5 Z"/></g>
<g><path style="opacity:1" fill="#a7a3b9" d="M 49.5,127.5 C 50.7169,130.067 52.3835,132.4 54.5,134.5C 52.629,134.141 51.129,133.141 50,131.5C 49.5357,132.094 49.369,132.761 49.5,133.5C 48.4271,131.653 48.4271,129.653 49.5,127.5 Z"/></g>
<g><path style="opacity:1" fill="#73607c" d="M 56.5,135.5 C 55.8333,135.167 55.1667,134.833 54.5,134.5C 52.3835,132.4 50.7169,130.067 49.5,127.5C 48.7659,126.292 48.4326,124.959 48.5,123.5C 48.8593,121.169 49.526,121.335 50.5,124C 51.448,124.483 52.448,124.649 53.5,124.5C 54.653,128.111 55.653,131.777 56.5,135.5 Z"/></g>
<g><path style="opacity:1" fill="#656b92" d="M 14.5,115.5 C 13.6559,122.418 15.3226,123.585 19.5,119C 19.1667,118.667 18.8333,118.333 18.5,118C 19.8932,116.829 20.7265,115.329 21,113.5C 22.0184,117.249 23.1851,120.916 24.5,124.5C 23.6862,126.631 23.1862,128.964 23,131.5C 22.1739,129.595 21.0072,129.261 19.5,130.5C 18.5721,131.768 18.4054,133.101 19,134.5C 20.3603,136.105 21.8603,137.605 23.5,139C 26.1667,139.333 26.8333,138.333 25.5,136C 28.0349,132.877 28.0349,129.71 25.5,126.5C 26.4287,123.325 27.262,119.991 28,116.5C 28.3333,123.5 28.6667,130.5 29,137.5C 29.346,139.218 29.846,140.885 30.5,142.5C 30.1667,142.833 29.8333,143.167 29.5,143.5C 28.7189,142.271 28.2189,140.938 28,139.5C 24.7737,143.619 22.9404,148.286 22.5,153.5C 22.1667,154.833 21.8333,156.167 21.5,157.5C 20.1057,159.951 19.2724,162.618 19,165.5C 17.872,163.655 17.372,161.655 17.5,159.5C 16.324,152.63 17.9907,146.63 22.5,141.5C 20.4698,139.393 18.3031,137.393 16,135.5C 15.34,137.324 14.1733,138.657 12.5,139.5C 12.3601,137.876 13.0267,136.71 14.5,136C 10.8448,131.835 6.51148,131.335 1.5,134.5C 0.816537,134.137 0.14987,133.804 -0.5,133.5C -0.5,131.5 -0.5,129.5 -0.5,127.5C -0.166667,127.5 0.166667,127.5 0.5,127.5C 0.5,128.5 0.5,129.5 0.5,130.5C 2.14387,130.714 3.64387,130.38 5,129.5C 9.34441,122.124 11.6777,114.124 12,105.5C 11.9165,109.311 12.7499,112.645 14.5,115.5 Z"/></g>
<g><path style="opacity:1" fill="#978293" d="M 179.5,119.5 C 179.833,119.5 180.167,119.5 180.5,119.5C 180.5,122.167 180.5,124.833 180.5,127.5C 179.957,132.9 178.624,138.233 176.5,143.5C 175.05,142.15 174.383,140.484 174.5,138.5C 176.924,132.474 178.591,126.141 179.5,119.5 Z"/></g>
<g><path style="opacity:1" fill="#3e4068" d="M 24.5,124.5 C 24.8333,125.167 25.1667,125.833 25.5,126.5C 28.0349,129.71 28.0349,132.877 25.5,136C 26.8333,138.333 26.1667,139.333 23.5,139C 21.8603,137.605 20.3603,136.105 19,134.5C 18.4054,133.101 18.5721,131.768 19.5,130.5C 21.0072,129.261 22.1739,129.595 23,131.5C 23.1862,128.964 23.6862,126.631 24.5,124.5 Z"/></g>
<g><path style="opacity:1" fill="#6e81a5" d="M 12.5,139.5 C 8.81954,146.197 5.15287,152.864 1.5,159.5C 0.833333,157.5 0.166667,155.5 -0.5,153.5C -0.5,146.833 -0.5,140.167 -0.5,133.5C 0.14987,133.804 0.816537,134.137 1.5,134.5C 6.51148,131.335 10.8448,131.835 14.5,136C 13.0267,136.71 12.3601,137.876 12.5,139.5 Z"/></g>
<g><path style="opacity:1" fill="#656186" d="M 54.5,134.5 C 54.307,138.566 54.6403,142.566 55.5,146.5C 51.6448,143.118 49.6448,138.784 49.5,133.5C 49.369,132.761 49.5357,132.094 50,131.5C 51.129,133.141 52.629,134.141 54.5,134.5 Z"/></g>
<g><path style="opacity:1" fill="#dab8be" d="M 49.5,92.5 C 50.7729,94.7128 51.7729,97.0462 52.5,99.5C 53.7111,111.022 56.2111,122.355 60,133.5C 64.6477,140.643 70.1477,146.976 76.5,152.5C 75.5084,152.672 74.8417,152.338 74.5,151.5C 67.5823,147.252 61.5823,141.919 56.5,135.5C 55.653,131.777 54.653,128.111 53.5,124.5C 52.448,124.649 51.448,124.483 50.5,124C 49.526,121.335 48.8593,121.169 48.5,123.5C 47.8968,121.374 47.8968,119.041 48.5,116.5C 50.335,117.122 51.5017,118.456 52,120.5C 52.6924,119.975 53.1924,119.308 53.5,118.5C 52.1667,116.5 50.8333,114.5 49.5,112.5C 50.8416,109.236 50.5083,106.236 48.5,103.5C 48.185,99.6286 48.5184,95.9619 49.5,92.5 Z"/></g>
<g><path style="opacity:1" fill="#9d8898" d="M 166.5,143.5 C 166.824,150.354 166.491,157.021 165.5,163.5C 165.382,156.86 165.048,150.193 164.5,143.5C 163.001,149.149 161.501,154.815 160,160.5C 160.351,154.861 160.851,149.194 161.5,143.5C 161.584,140.673 162.25,138.006 163.5,135.5C 163.338,133.473 163.505,131.473 164,129.5C 165.321,134.06 166.154,138.727 166.5,143.5 Z"/></g>
<g><path style="opacity:1" fill="#767699" d="M 25.5,81.5 C 25.7208,84.0972 26.2208,84.0972 27,81.5C 28.2948,86.6695 27.1281,91.1695 23.5,95C 25.8098,95.4966 28.1432,95.6633 30.5,95.5C 29.6457,106.427 30.8124,117.094 34,127.5C 35.1353,127.727 36.302,128.06 37.5,128.5C 38.5023,132.353 40.169,135.853 42.5,139C 44.251,138.691 45.9177,138.525 47.5,138.5C 49.1948,142.527 51.8615,145.86 55.5,148.5C 55.7845,150.415 55.4511,152.081 54.5,153.5C 54.44,152.957 54.1067,152.624 53.5,152.5C 52.3861,153.723 52.2195,155.056 53,156.5C 54.815,160.796 57.1483,164.796 60,168.5C 60.1667,168.167 60.3333,167.833 60.5,167.5C 59.3698,166.378 58.7031,165.044 58.5,163.5C 59.1174,163.611 59.6174,163.944 60,164.5C 60.6976,161.996 61.5309,159.663 62.5,157.5C 62.1817,162.659 62.8483,167.659 64.5,172.5C 63.0901,175.783 64.0901,178.117 67.5,179.5C 66.209,179.263 65.209,179.596 64.5,180.5C 61.9922,178.076 58.9922,176.41 55.5,175.5C 54.708,173.743 53.3747,172.409 51.5,171.5C 50.4793,172.901 49.4793,174.235 48.5,175.5C 48.8146,173.774 48.9813,172.107 49,170.5C 44.2605,166.584 39.7605,162.584 35.5,158.5C 35.8039,157.85 36.1373,157.183 36.5,156.5C 34.5875,152.34 32.4209,148.34 30,144.5C 28.2927,146.037 26.7927,147.704 25.5,149.5C 24.4884,150.872 23.4884,152.205 22.5,153.5C 22.9404,148.286 24.7737,143.619 28,139.5C 28.2189,140.938 28.7189,142.271 29.5,143.5C 29.8333,143.167 30.1667,142.833 30.5,142.5C 29.846,140.885 29.346,139.218 29,137.5C 28.6667,130.5 28.3333,123.5 28,116.5C 27.262,119.991 26.4287,123.325 25.5,126.5C 25.1667,125.833 24.8333,125.167 24.5,124.5C 23.1851,120.916 22.0184,117.249 21,113.5C 20.7265,115.329 19.8932,116.829 18.5,118C 18.8333,118.333 19.1667,118.667 19.5,119C 15.3226,123.585 13.6559,122.418 14.5,115.5C 16.0665,112.717 17.8999,110.051 20,107.5C 21.2375,98.5701 23.0708,89.9034 25.5,81.5 Z"/></g>
<g><path style="opacity:1" fill="#917e91" d="M 189.5,156.5 C 188.833,157.5 188.167,158.5 187.5,159.5C 186.761,159.631 186.094,159.464 185.5,159C 190.797,151.895 191.797,144.395 188.5,136.5C 189.278,135.844 189.944,135.011 190.5,134C 189.47,131.44 188.303,128.94 187,126.5C 186.802,128.382 186.302,130.048 185.5,131.5C 185.5,130.167 185.5,128.833 185.5,127.5C 185.334,122.489 185.501,117.489 186,112.5C 191.348,124.918 193.348,137.918 192,151.5C 191.153,153.193 190.32,154.86 189.5,156.5 Z"/></g>
<g><path style="opacity:1" fill="#735f7b" d="M 188.5,136.5 C 187.503,136.47 186.836,136.97 186.5,138C 185.782,141.461 185.282,144.961 185,148.5C 184.576,151.025 183.41,153.025 181.5,154.5C 182.921,149.24 183.921,143.907 184.5,138.5C 184.993,136.194 185.326,133.861 185.5,131.5C 186.302,130.048 186.802,128.382 187,126.5C 188.303,128.94 189.47,131.44 190.5,134C 189.944,135.011 189.278,135.844 188.5,136.5 Z"/></g>
<g><path style="opacity:1" fill="#3a4067" d="M 17.5,159.5 C 14.4816,159.335 11.4816,159.502 8.5,160C 6.60887,161.442 4.60887,162.609 2.5,163.5C 1.56552,162.432 1.23219,161.099 1.5,159.5C 5.15287,152.864 8.81954,146.197 12.5,139.5C 14.1733,138.657 15.34,137.324 16,135.5C 18.3031,137.393 20.4698,139.393 22.5,141.5C 17.9907,146.63 16.324,152.63 17.5,159.5 Z"/></g>
<g><path style="opacity:1" fill="#e0ced5" d="M 149.5,90.5 C 150.317,93.6185 151.317,96.6185 152.5,99.5C 151.609,100.261 150.942,101.261 150.5,102.5C 151.637,104.607 152.637,106.773 153.5,109C 150.043,120.357 146.71,131.857 143.5,143.5C 144.246,144.736 144.579,146.07 144.5,147.5C 145.5,147.5 146.5,147.5 147.5,147.5C 147.5,146.167 147.5,144.833 147.5,143.5C 148.833,143.5 150.167,143.5 151.5,143.5C 151.5,144.833 151.5,146.167 151.5,147.5C 153.861,147.674 156.194,148.007 158.5,148.5C 159.395,144.55 160.395,140.55 161.5,136.5C 162.183,136.137 162.85,135.804 163.5,135.5C 162.25,138.006 161.584,140.673 161.5,143.5C 159.057,148.5 157.39,153.834 156.5,159.5C 155.326,160.514 154.66,161.847 154.5,163.5C 153.069,163.881 152.236,164.881 152,166.5C 150.948,172.117 150.282,177.784 150,183.5C 149.23,184.598 148.397,184.598 147.5,183.5C 146.502,178.182 145.502,172.849 144.5,167.5C 143.682,170.107 143.182,172.774 143,175.5C 141.198,170.394 140.365,165.06 140.5,159.5C 140.461,154.356 140.961,149.356 142,144.5C 139.591,150.565 137.091,156.565 134.5,162.5C 131.769,166.322 130.436,170.656 130.5,175.5C 130.167,175.5 129.833,175.5 129.5,175.5C 129.269,171.007 129.936,166.674 131.5,162.5C 131.433,161.041 131.766,159.708 132.5,158.5C 135.643,151.855 137.976,144.855 139.5,137.5C 140.247,134.101 141.247,130.767 142.5,127.5C 142.833,124.833 143.167,122.167 143.5,119.5C 144.861,114.696 145.861,109.696 146.5,104.5C 146.173,99.456 146.506,94.456 147.5,89.5C 148.183,89.8627 148.85,90.1961 149.5,90.5 Z"/></g>
<g><path style="opacity:1" fill="#748cae" d="M 54.5,134.5 C 55.1667,134.833 55.8333,135.167 56.5,135.5C 61.5823,141.919 67.5823,147.252 74.5,151.5C 73.5269,153.948 73.1936,156.615 73.5,159.5C 72.5655,160.568 72.2322,161.901 72.5,163.5C 70.2046,160.203 67.538,157.203 64.5,154.5C 65.8408,152.166 65.1741,150.499 62.5,149.5C 60.9335,146.717 59.1001,144.051 57,141.5C 57.0524,144.272 58.219,146.606 60.5,148.5C 59.3881,149.265 58.7214,150.265 58.5,151.5C 58.0293,153.579 57.3627,155.579 56.5,157.5C 55.3263,156.486 54.6596,155.153 54.5,153.5C 55.4511,152.081 55.7845,150.415 55.5,148.5C 56.5063,148.062 56.5063,147.396 55.5,146.5C 54.6403,142.566 54.307,138.566 54.5,134.5 Z"/></g>
<g><path style="opacity:1" fill="#4a6690" d="M 62.5,149.5 C 61.1667,150.167 59.8333,150.833 58.5,151.5C 58.7214,150.265 59.3881,149.265 60.5,148.5C 58.219,146.606 57.0524,144.272 57,141.5C 59.1001,144.051 60.9335,146.717 62.5,149.5 Z"/></g>
<g><path style="opacity:1" fill="#6c7291" d="M 132.5,137.5 C 133.167,137.5 133.833,137.5 134.5,137.5C 134.918,138.222 135.584,138.722 136.5,139C 133.857,141.982 133.857,144.149 136.5,145.5C 134.838,147.652 132.838,149.318 130.5,150.5C 129.167,150.833 127.833,151.167 126.5,151.5C 128.551,148.566 130.218,145.399 131.5,142C 130.906,141.536 130.239,141.369 129.5,141.5C 130.5,140.167 131.5,138.833 132.5,137.5 Z"/></g>
<g><path style="opacity:1" fill="#5c5b84" d="M 35.5,158.5 C 34.8333,159.167 34.1667,159.833 33.5,160.5C 32.8485,161.091 32.1818,161.757 31.5,162.5C 30.8589,161.007 29.8589,160.007 28.5,159.5C 27.284,156.129 26.284,152.795 25.5,149.5C 26.7927,147.704 28.2927,146.037 30,144.5C 32.4209,148.34 34.5875,152.34 36.5,156.5C 36.1373,157.183 35.8039,157.85 35.5,158.5 Z"/></g>
<g><path style="opacity:1" fill="#5b4569" d="M 129.5,141.5 C 130.239,141.369 130.906,141.536 131.5,142C 130.218,145.399 128.551,148.566 126.5,151.5C 124.833,151.5 123.167,151.5 121.5,151.5C 120.167,151.5 119.5,150.833 119.5,149.5C 123.122,147.213 126.455,144.547 129.5,141.5 Z"/></g>
<g><path style="opacity:1" fill="#454469" d="M 62.5,149.5 C 65.1741,150.499 65.8408,152.166 64.5,154.5C 63.0937,154.973 62.427,155.973 62.5,157.5C 61.5309,159.663 60.6976,161.996 60,164.5C 59.6174,163.944 59.1174,163.611 58.5,163.5C 57.8333,161.5 57.1667,159.5 56.5,157.5C 57.3627,155.579 58.0293,153.579 58.5,151.5C 59.8333,150.833 61.1667,150.167 62.5,149.5 Z"/></g>
<g><path style="opacity:1" fill="#595f64" d="M 119.5,149.5 C 119.5,150.833 120.167,151.5 121.5,151.5C 117.994,152.733 114.327,153.733 110.5,154.5C 110.5,154.167 110.5,153.833 110.5,153.5C 112.05,152.559 113.716,151.893 115.5,151.5C 116.833,150.833 118.167,150.167 119.5,149.5 Z"/></g>
<g><path style="opacity:1" fill="#7f91a6" d="M 134.5,137.5 C 136.167,137.5 137.833,137.5 139.5,137.5C 137.976,144.855 135.643,151.855 132.5,158.5C 132.631,157.624 132.298,156.957 131.5,156.5C 130.583,157.127 129.583,157.461 128.5,157.5C 129.368,155.598 130.368,153.765 131.5,152C 131.43,151.235 131.097,150.735 130.5,150.5C 132.838,149.318 134.838,147.652 136.5,145.5C 133.857,144.149 133.857,141.982 136.5,139C 135.584,138.722 134.918,138.222 134.5,137.5 Z"/></g>
<g><path style="opacity:1" fill="#ddc8d1" d="M 180.5,127.5 C 180.833,131.5 181.167,131.5 181.5,127.5C 182.833,127.5 184.167,127.5 185.5,127.5C 185.5,128.833 185.5,130.167 185.5,131.5C 185.326,133.861 184.993,136.194 184.5,138.5C 182.706,144.008 179.872,149.008 176,153.5C 175.444,151.405 174.944,151.238 174.5,153C 176.981,160.297 180.981,166.63 186.5,172C 187.094,172.464 187.761,172.631 188.5,172.5C 188.158,173.338 187.492,173.672 186.5,173.5C 185.5,173.5 184.5,173.5 183.5,173.5C 183.158,172.662 182.492,172.328 181.5,172.5C 180.5,170.833 179.167,169.5 177.5,168.5C 174.068,163.377 171.901,157.71 171,151.5C 171.054,161.738 168.887,171.404 164.5,180.5C 164.167,181.167 163.833,181.833 163.5,182.5C 162.957,182.44 162.624,182.107 162.5,181.5C 163.17,179.137 163.837,176.804 164.5,174.5C 165.344,170.901 165.677,167.234 165.5,163.5C 166.491,157.021 166.824,150.354 166.5,143.5C 167.833,143.5 169.167,143.5 170.5,143.5C 170.065,140.404 169.565,137.404 169,134.5C 170.073,136.547 171.239,138.547 172.5,140.5C 173.182,139.757 173.849,139.091 174.5,138.5C 174.383,140.484 175.05,142.15 176.5,143.5C 178.624,138.233 179.957,132.9 180.5,127.5 Z"/></g>
<g><path style="opacity:1" fill="#353d65" d="M 25.5,149.5 C 26.284,152.795 27.284,156.129 28.5,159.5C 26.5214,157.832 24.188,157.166 21.5,157.5C 21.8333,156.167 22.1667,154.833 22.5,153.5C 23.4884,152.205 24.4884,150.872 25.5,149.5 Z"/></g>
<g><path style="opacity:1" fill="#302532" d="M 74.5,151.5 C 74.8417,152.338 75.5084,152.672 76.5,152.5C 76.8333,153.167 77.1667,153.833 77.5,154.5C 76.8333,156.167 76.1667,157.833 75.5,159.5C 74.8333,159.5 74.1667,159.5 73.5,159.5C 73.1936,156.615 73.5269,153.948 74.5,151.5 Z"/></g>
<g><path style="opacity:1" fill="#866c74" d="M 78.5,154.5 C 80.95,155.777 83.2833,157.277 85.5,159C 87.4727,159.495 89.4727,159.662 91.5,159.5C 91.5,159.833 91.5,160.167 91.5,160.5C 87.6792,161.912 84.0126,163.578 80.5,165.5C 80.1667,164.833 79.8333,164.167 79.5,163.5C 79.5,163.167 79.5,162.833 79.5,162.5C 81.3102,163.955 82.9769,163.788 84.5,162C 82.9625,160.293 81.2959,158.793 79.5,157.5C 78.8902,156.609 78.5569,155.609 78.5,154.5 Z"/></g>
<g><path style="opacity:1" fill="#8e7894" d="M 161.5,143.5 C 160.851,149.194 160.351,154.861 160,160.5C 161.501,154.815 163.001,149.149 164.5,143.5C 165.048,150.193 165.382,156.86 165.5,163.5C 165.677,167.234 165.344,170.901 164.5,174.5C 163.503,174.53 162.836,174.03 162.5,173C 163.591,167.222 161.591,162.722 156.5,159.5C 157.39,153.834 159.057,148.5 161.5,143.5 Z"/></g>
<g><path style="opacity:1" fill="#8d7990" d="M 184.5,138.5 C 183.921,143.907 182.921,149.24 181.5,154.5C 181.123,156.258 180.456,157.925 179.5,159.5C 180.657,161.683 181.99,163.683 183.5,165.5C 184.496,168.955 186.83,170.788 190.5,171C 189.956,171.717 189.289,172.217 188.5,172.5C 187.761,172.631 187.094,172.464 186.5,172C 180.981,166.63 176.981,160.297 174.5,153C 174.944,151.238 175.444,151.405 176,153.5C 179.872,149.008 182.706,144.008 184.5,138.5 Z"/></g>
<g><path style="opacity:1" fill="#8e9da0" d="M 110.5,153.5 C 110.5,153.833 110.5,154.167 110.5,154.5C 109.167,155.167 107.833,155.833 106.5,156.5C 101.372,157.433 96.3718,158.766 91.5,160.5C 91.5,160.167 91.5,159.833 91.5,159.5C 91.5,159.167 91.5,158.833 91.5,158.5C 96.3548,157.456 101.022,156.123 105.5,154.5C 107.216,154.371 108.883,154.038 110.5,153.5 Z"/></g>
<g><path style="opacity:1" fill="#9fe6e8" d="M 130.5,150.5 C 131.097,150.735 131.43,151.235 131.5,152C 130.368,153.765 129.368,155.598 128.5,157.5C 116.66,160.089 104.994,163.422 93.5,167.5C 97.9789,165.242 102.479,162.909 107,160.5C 112.178,161.402 116.845,160.069 121,156.5C 123.426,157.432 124.426,156.432 124,153.5C 118.543,154.882 112.71,155.882 106.5,156.5C 107.833,155.833 109.167,155.167 110.5,154.5C 114.327,153.733 117.994,152.733 121.5,151.5C 123.167,151.5 124.833,151.5 126.5,151.5C 127.833,151.167 129.167,150.833 130.5,150.5 Z"/></g>
<g><path style="opacity:1" fill="#938aa8" d="M 188.5,136.5 C 191.797,144.395 190.797,151.895 185.5,159C 186.094,159.464 186.761,159.631 187.5,159.5C 186.737,160.268 185.737,160.768 184.5,161C 186.087,161.862 187.754,162.529 189.5,163C 187.372,163.655 185.372,164.489 183.5,165.5C 181.99,163.683 180.657,161.683 179.5,159.5C 180.456,157.925 181.123,156.258 181.5,154.5C 183.41,153.025 184.576,151.025 185,148.5C 185.282,144.961 185.782,141.461 186.5,138C 186.836,136.97 187.503,136.47 188.5,136.5 Z"/></g>
<g><path style="opacity:1" fill="#bd96a5" d="M 79.5,157.5 C 81.2959,158.793 82.9625,160.293 84.5,162C 82.9769,163.788 81.3102,163.955 79.5,162.5C 79.5,160.833 79.5,159.167 79.5,157.5 Z"/></g>
<g><path style="opacity:1" fill="#99eeea" d="M 93.5,167.5 C 89.7062,168.982 86.0395,170.649 82.5,172.5C 79.7448,172.037 78.0781,170.37 77.5,167.5C 78.5,166.833 79.5,166.167 80.5,165.5C 84.0126,163.578 87.6792,161.912 91.5,160.5C 96.3718,158.766 101.372,157.433 106.5,156.5C 112.71,155.882 118.543,154.882 124,153.5C 124.426,156.432 123.426,157.432 121,156.5C 116.845,160.069 112.178,161.402 107,160.5C 102.479,162.909 97.9789,165.242 93.5,167.5 Z"/></g>
<g><path style="opacity:1" fill="#4e4063" d="M 77.5,154.5 C 77.8333,154.5 78.1667,154.5 78.5,154.5C 78.5569,155.609 78.8902,156.609 79.5,157.5C 79.5,159.167 79.5,160.833 79.5,162.5C 79.5,162.833 79.5,163.167 79.5,163.5C 78.207,162.158 77.3736,160.491 77,158.5C 76.6174,159.056 76.1174,159.389 75.5,159.5C 76.1667,157.833 76.8333,156.167 77.5,154.5 Z"/></g>
<g><path style="opacity:1" fill="#c5bbd1" d="M 54.5,153.5 C 54.6596,155.153 55.3263,156.486 56.5,157.5C 57.1667,159.5 57.8333,161.5 58.5,163.5C 58.7031,165.044 59.3698,166.378 60.5,167.5C 60.3333,167.833 60.1667,168.167 60,168.5C 57.1483,164.796 54.815,160.796 53,156.5C 52.2195,155.056 52.3861,153.723 53.5,152.5C 54.1067,152.624 54.44,152.957 54.5,153.5 Z"/></g>
<g><path style="opacity:1" fill="#9b94ab" d="M 194.5,155.5 C 193.608,159.719 192.275,164.219 190.5,169C 191.793,169.49 193.127,169.657 194.5,169.5C 194.443,170.609 194.11,171.609 193.5,172.5C 191.603,173.65 189.603,174.65 187.5,175.5C 187.167,174.833 186.833,174.167 186.5,173.5C 187.492,173.672 188.158,173.338 188.5,172.5C 189.289,172.217 189.956,171.717 190.5,171C 186.83,170.788 184.496,168.955 183.5,165.5C 185.372,164.489 187.372,163.655 189.5,163C 187.754,162.529 186.087,161.862 184.5,161C 185.737,160.768 186.737,160.268 187.5,159.5C 188.167,158.5 188.833,157.5 189.5,156.5C 189.735,157.097 190.235,157.43 191,157.5C 192.303,157.022 193.469,156.355 194.5,155.5 Z"/></g>
<g><path style="opacity:1" fill="#817a92" d="M 140.5,159.5 C 138.343,168.555 140.176,176.889 146,184.5C 146.383,183.944 146.883,183.611 147.5,183.5C 147.604,185.703 148.27,187.703 149.5,189.5C 148.391,189.557 147.391,189.89 146.5,190.5C 146.5,190.167 146.5,189.833 146.5,189.5C 146.5,188.5 146.5,187.5 146.5,186.5C 144.058,186.646 143.391,185.813 144.5,184C 141.124,179.725 138.791,174.892 137.5,169.5C 137.253,168.287 136.586,167.62 135.5,167.5C 135.634,165.708 135.301,164.042 134.5,162.5C 137.091,156.565 139.591,150.565 142,144.5C 140.961,149.356 140.461,154.356 140.5,159.5 Z"/></g>
<g><path style="opacity:1" fill="#4c5980" d="M 79.5,163.5 C 79.8333,164.167 80.1667,164.833 80.5,165.5C 79.5,166.167 78.5,166.833 77.5,167.5C 76.8333,167.5 76.1667,167.5 75.5,167.5C 74.5116,166.205 73.5116,164.872 72.5,163.5C 72.2322,161.901 72.5655,160.568 73.5,159.5C 74.1667,159.5 74.8333,159.5 75.5,159.5C 76.1174,159.389 76.6174,159.056 77,158.5C 77.3736,160.491 78.207,162.158 79.5,163.5 Z"/></g>
<g><path style="opacity:1" fill="#495e9a" d="M 21.5,157.5 C 24.188,157.166 26.5214,157.832 28.5,159.5C 28.2771,162.114 29.4438,163.781 32,164.5C 32.3568,168.51 32.1901,172.51 31.5,176.5C 30.8902,177.391 30.5569,178.391 30.5,179.5C 30.1667,179.5 29.8333,179.5 29.5,179.5C 27.5572,172.503 23.2238,170.67 16.5,174C 14.6298,176.04 12.6298,177.873 10.5,179.5C 6.25788,175.016 3.59121,169.682 2.5,163.5C 4.60887,162.609 6.60887,161.442 8.5,160C 11.4816,159.502 14.4816,159.335 17.5,159.5C 17.372,161.655 17.872,163.655 19,165.5C 19.2724,162.618 20.1057,159.951 21.5,157.5 Z"/></g>
<g><path style="opacity:1" fill="#cab8c3" d="M 140.5,159.5 C 140.365,165.06 141.198,170.394 143,175.5C 143.182,172.774 143.682,170.107 144.5,167.5C 145.502,172.849 146.502,178.182 147.5,183.5C 146.883,183.611 146.383,183.944 146,184.5C 140.176,176.889 138.343,168.555 140.5,159.5 Z"/></g>
<g><path style="opacity:1" fill="#947f93" d="M 177.5,168.5 C 176.143,169.685 174.643,170.685 173,171.5C 172.228,171.355 171.561,171.022 171,170.5C 169.956,172.715 169.29,175.048 169,177.5C 167.729,178.883 166.229,179.883 164.5,180.5C 168.887,171.404 171.054,161.738 171,151.5C 171.901,157.71 174.068,163.377 177.5,168.5 Z"/></g>
<g><path style="opacity:1" fill="#b1aebf" d="M 199.5,151.5 C 199.5,152.167 199.5,152.833 199.5,153.5C 198.453,159.019 196.786,164.353 194.5,169.5C 193.127,169.657 191.793,169.49 190.5,169C 192.275,164.219 193.608,159.719 194.5,155.5C 195.579,153.457 197.246,152.124 199.5,151.5 Z"/></g>
<g><path style="opacity:1" fill="#98f1ec" d="M 125.5,176.5 C 126.03,182.26 128.03,187.427 131.5,192C 130.207,192.49 128.873,192.657 127.5,192.5C 117.494,192.666 107.494,192.5 97.5,192C 96.8333,191.667 96.1667,191.333 95.5,191C 97.0581,190.79 98.3915,190.29 99.5,189.5C 100.833,189.5 102.167,189.5 103.5,189.5C 103.5,188.5 103.5,187.5 103.5,186.5C 102.722,185.844 102.056,185.011 101.5,184C 102.707,182.7 103.374,181.2 103.5,179.5C 104.833,179.5 106.167,179.5 107.5,179.5C 107.5,177.5 107.5,175.5 107.5,173.5C 111.527,173.719 112.194,172.552 109.5,170C 109.833,169.667 110.167,169.333 110.5,169C 114.167,168.667 117.833,168.333 121.5,168C 122.025,167.308 122.692,166.808 123.5,166.5C 124.167,169.977 124.834,173.311 125.5,176.5 Z"/></g>
<g><path style="opacity:1" fill="#97bac3" d="M 134.5,162.5 C 135.301,164.042 135.634,165.708 135.5,167.5C 135.5,168.833 135.5,170.167 135.5,171.5C 134.71,170.391 134.21,169.058 134,167.5C 132.281,170.025 131.114,172.692 130.5,175.5C 130.436,170.656 131.769,166.322 134.5,162.5 Z"/></g>
<g><path style="opacity:1" fill="#6c94b3" d="M 35.5,158.5 C 39.7605,162.584 44.2605,166.584 49,170.5C 48.9813,172.107 48.8146,173.774 48.5,175.5C 48.6716,176.492 48.3382,177.158 47.5,177.5C 46.8133,174.438 45.1466,173.105 42.5,173.5C 41.2117,176.967 41.2117,180.3 42.5,183.5C 41.5,184.5 40.5,185.5 39.5,186.5C 38.3443,184.176 37.3443,181.843 36.5,179.5C 34.3811,173.354 33.3811,167.021 33.5,160.5C 34.1667,159.833 34.8333,159.167 35.5,158.5 Z"/></g>
<g><path style="opacity:1" fill="#59939d" d="M 75.5,167.5 C 76.1667,167.5 76.8333,167.5 77.5,167.5C 78.0781,170.37 79.7448,172.037 82.5,172.5C 81.791,173.404 80.791,173.737 79.5,173.5C 77.8079,171.795 76.4746,169.795 75.5,167.5 Z"/></g>
<g><path style="opacity:1" fill="#8a7695" d="M 177.5,168.5 C 179.167,169.5 180.5,170.833 181.5,172.5C 179.692,173.907 177.692,175.074 175.5,176C 174.177,176.816 173.511,177.983 173.5,179.5C 173.672,180.492 173.338,181.158 172.5,181.5C 171.141,183.503 169.808,185.503 168.5,187.5C 163.792,190.02 158.792,191.686 153.5,192.5C 153.5,192.167 153.5,191.833 153.5,191.5C 154.552,191.649 155.552,191.483 156.5,191C 158.741,187.973 161.074,185.14 163.5,182.5C 163.833,181.833 164.167,181.167 164.5,180.5C 166.229,179.883 167.729,178.883 169,177.5C 169.29,175.048 169.956,172.715 171,170.5C 171.561,171.022 172.228,171.355 173,171.5C 174.643,170.685 176.143,169.685 177.5,168.5 Z"/></g>
<g><path style="opacity:1" fill="#525e7d" d="M 132.5,158.5 C 131.766,159.708 131.433,161.041 131.5,162.5C 129.048,163.065 126.715,163.732 124.5,164.5C 123.209,164.263 122.209,164.596 121.5,165.5C 113.179,166.58 105.179,168.58 97.5,171.5C 93.0515,172.892 88.7181,174.559 84.5,176.5C 83.609,177.11 82.609,177.443 81.5,177.5C 80.8333,176.167 80.1667,174.833 79.5,173.5C 80.791,173.737 81.791,173.404 82.5,172.5C 86.0395,170.649 89.7062,168.982 93.5,167.5C 104.994,163.422 116.66,160.089 128.5,157.5C 129.583,157.461 130.583,157.127 131.5,156.5C 132.298,156.957 132.631,157.624 132.5,158.5 Z"/></g>
<g><path style="opacity:1" fill="#96eaec" d="M 121.5,165.5 C 122.833,165.5 124.167,165.5 125.5,165.5C 125.5,169.167 125.5,172.833 125.5,176.5C 124.834,173.311 124.167,169.977 123.5,166.5C 122.692,166.808 122.025,167.308 121.5,168C 117.833,168.333 114.167,168.667 110.5,169C 110.167,169.333 109.833,169.667 109.5,170C 112.194,172.552 111.527,173.719 107.5,173.5C 107.5,175.5 107.5,177.5 107.5,179.5C 106.167,179.5 104.833,179.5 103.5,179.5C 103.374,181.2 102.707,182.7 101.5,184C 102.056,185.011 102.722,185.844 103.5,186.5C 102.127,186.657 100.793,186.49 99.5,186C 96.714,184.499 94.0473,182.999 91.5,181.5C 92.252,179.9 93.252,178.4 94.5,177C 93.6634,175.989 93.33,174.822 93.5,173.5C 95.3797,173.771 96.713,173.104 97.5,171.5C 105.179,168.58 113.179,166.58 121.5,165.5 Z"/></g>
<g><path style="opacity:1" fill="#677e8b" d="M 181.5,172.5 C 182.492,172.328 183.158,172.662 183.5,173.5C 179.863,174.986 176.53,176.986 173.5,179.5C 173.511,177.983 174.177,176.816 175.5,176C 177.692,175.074 179.692,173.907 181.5,172.5 Z"/></g>
<g><path style="opacity:1" fill="#768ea2" d="M 64.5,172.5 C 67.8715,176.687 72.2048,179.521 77.5,181C 75.2922,181.191 73.2922,181.691 71.5,182.5C 70.1667,181.5 68.8333,180.5 67.5,179.5C 64.0901,178.117 63.0901,175.783 64.5,172.5 Z"/></g>
<g><path style="opacity:1" fill="#96e2eb" d="M 97.5,171.5 C 96.713,173.104 95.3797,173.771 93.5,173.5C 93.33,174.822 93.6634,175.989 94.5,177C 93.252,178.4 92.252,179.9 91.5,181.5C 88.2809,180.931 85.9475,179.264 84.5,176.5C 88.7181,174.559 93.0515,172.892 97.5,171.5 Z"/></g>
<g><path style="opacity:1" fill="#3f4976" d="M 28.5,159.5 C 29.8589,160.007 30.8589,161.007 31.5,162.5C 32.1818,161.757 32.8485,161.091 33.5,160.5C 33.3811,167.021 34.3811,173.354 36.5,179.5C 35.8826,179.611 35.3826,179.944 35,180.5C 33.4499,179.409 32.2832,178.076 31.5,176.5C 32.1901,172.51 32.3568,168.51 32,164.5C 29.4438,163.781 28.2771,162.114 28.5,159.5 Z"/></g>
<g><path style="opacity:1" fill="#757895" d="M 131.5,162.5 C 129.936,166.674 129.269,171.007 129.5,175.5C 129.5,175.833 129.5,176.167 129.5,176.5C 128.732,177.263 128.232,178.263 128,179.5C 127.667,179.167 127.333,178.833 127,178.5C 127.114,173.394 126.28,168.727 124.5,164.5C 126.715,163.732 129.048,163.065 131.5,162.5 Z"/></g>
<g><path style="opacity:1" fill="#a7d0d8" d="M 183.5,173.5 C 180.442,176.051 177.442,178.885 174.5,182C 173.563,182.692 172.897,182.525 172.5,181.5C 173.338,181.158 173.672,180.492 173.5,179.5C 176.53,176.986 179.863,174.986 183.5,173.5 Z"/></g>
<g><path style="opacity:1" fill="#4c567b" d="M 55.5,175.5 C 54.3263,176.514 53.6596,177.847 53.5,179.5C 51.1667,181.167 49.1667,183.167 47.5,185.5C 46.448,185.351 45.448,185.517 44.5,186C 44.0257,187.729 43.0257,188.895 41.5,189.5C 40.4489,188.778 39.7822,187.778 39.5,186.5C 40.5,185.5 41.5,184.5 42.5,183.5C 44.1667,181.5 45.8333,179.5 47.5,177.5C 48.3382,177.158 48.6716,176.492 48.5,175.5C 49.4793,174.235 50.4793,172.901 51.5,171.5C 53.3747,172.409 54.708,173.743 55.5,175.5 Z"/></g>
<g><path style="opacity:1" fill="#6b95b1" d="M 55.5,175.5 C 58.9922,176.41 61.9922,178.076 64.5,180.5C 64.8333,181.167 65.1667,181.833 65.5,182.5C 61.2793,182.314 57.2793,181.314 53.5,179.5C 53.6596,177.847 54.3263,176.514 55.5,175.5 Z"/></g>
<g><path style="opacity:1" fill="#7999b5" d="M 135.5,167.5 C 136.586,167.62 137.253,168.287 137.5,169.5C 138.791,174.892 141.124,179.725 144.5,184C 143.391,185.813 144.058,186.646 146.5,186.5C 146.5,187.5 146.5,188.5 146.5,189.5C 140.306,185.124 136.639,179.124 135.5,171.5C 135.5,170.167 135.5,168.833 135.5,167.5 Z"/></g>
<g><path style="opacity:1" fill="#7f8fab" d="M 156.5,159.5 C 161.591,162.722 163.591,167.222 162.5,173C 162.836,174.03 163.503,174.53 164.5,174.5C 163.837,176.804 163.17,179.137 162.5,181.5C 162.624,182.107 162.957,182.44 163.5,182.5C 161.074,185.14 158.741,187.973 156.5,191C 155.552,191.483 154.552,191.649 153.5,191.5C 151.961,188.135 151.294,184.469 151.5,180.5C 151.457,174.635 152.457,168.969 154.5,163.5C 154.66,161.847 155.326,160.514 156.5,159.5 Z"/></g>
<g><path style="opacity:1" fill="#95e4ec" d="M 47.5,177.5 C 45.8333,179.5 44.1667,181.5 42.5,183.5C 41.2117,180.3 41.2117,176.967 42.5,173.5C 45.1466,173.105 46.8133,174.438 47.5,177.5 Z"/></g>
<g><path style="opacity:1" fill="#658795" d="M 121.5,165.5 C 122.209,164.596 123.209,164.263 124.5,164.5C 126.28,168.727 127.114,173.394 127,178.5C 127.333,178.833 127.667,179.167 128,179.5C 128.232,178.263 128.732,177.263 129.5,176.5C 129.21,180.936 129.71,185.27 131,189.5C 132.848,192.041 135.348,193.041 138.5,192.5C 135.038,193.482 131.371,193.815 127.5,193.5C 127.5,193.167 127.5,192.833 127.5,192.5C 128.873,192.657 130.207,192.49 131.5,192C 128.03,187.427 126.03,182.26 125.5,176.5C 125.5,172.833 125.5,169.167 125.5,165.5C 124.167,165.5 122.833,165.5 121.5,165.5 Z"/></g>
<g><path style="opacity:1" fill="#2c2455" d="M 29.5,179.5 C 27.397,183.574 26.0636,187.907 25.5,192.5C 23.847,192.34 22.5137,191.674 21.5,190.5C 24.1621,186.672 24.8287,182.505 23.5,178C 21.8866,177.911 20.7199,178.745 20,180.5C 19.2564,182.9 18.4231,185.233 17.5,187.5C 14.4275,185.431 12.0941,182.764 10.5,179.5C 12.6298,177.873 14.6298,176.04 16.5,174C 23.2238,170.67 27.5572,172.503 29.5,179.5 Z"/></g>
<g><path style="opacity:1" fill="#93ebee" d="M 53.5,179.5 C 57.2793,181.314 61.2793,182.314 65.5,182.5C 67.8333,185.833 70.1667,189.167 72.5,192.5C 70.6099,191.82 68.6099,191.653 66.5,192C 65.9535,191.075 65.2868,190.242 64.5,189.5C 60.704,190.288 56.8706,190.954 53,191.5C 51.1105,191.215 49.7771,190.215 49,188.5C 47.5,189.667 46,190.833 44.5,192C 45.914,193.993 46.914,196.16 47.5,198.5C 42.2806,194.299 42.2806,189.966 47.5,185.5C 49.1667,183.167 51.1667,181.167 53.5,179.5 Z"/></g>
<g><path style="opacity:1" fill="#97eaec" d="M 64.5,154.5 C 67.538,157.203 70.2046,160.203 72.5,163.5C 73.5116,164.872 74.5116,166.205 75.5,167.5C 76.4746,169.795 77.8079,171.795 79.5,173.5C 80.1667,174.833 80.8333,176.167 81.5,177.5C 83.4821,180.81 85.8154,183.81 88.5,186.5C 91.0992,190.784 94.7659,193.451 99.5,194.5C 98.027,196.395 96.3603,198.061 94.5,199.5C 93.1667,199.5 91.8333,199.5 90.5,199.5C 83.2732,194.946 76.9398,189.279 71.5,182.5C 73.2922,181.691 75.2922,181.191 77.5,181C 72.2048,179.521 67.8715,176.687 64.5,172.5C 62.8483,167.659 62.1817,162.659 62.5,157.5C 62.427,155.973 63.0937,154.973 64.5,154.5 Z"/></g>
<g><path style="opacity:1" fill="#9aeee9" d="M 135.5,171.5 C 136.639,179.124 140.306,185.124 146.5,189.5C 146.5,189.833 146.5,190.167 146.5,190.5C 143.733,190.858 141.067,191.525 138.5,192.5C 135.348,193.041 132.848,192.041 131,189.5C 129.71,185.27 129.21,180.936 129.5,176.5C 129.5,176.167 129.5,175.833 129.5,175.5C 129.833,175.5 130.167,175.5 130.5,175.5C 131.114,172.692 132.281,170.025 134,167.5C 134.21,169.058 134.71,170.391 135.5,171.5 Z"/></g>
<g><path style="opacity:1" fill="#b5e7e5" d="M 193.5,172.5 C 187.455,184.878 177.788,192.878 164.5,196.5C 166.531,195.461 167.864,193.795 168.5,191.5C 168.5,191.167 168.5,190.833 168.5,190.5C 174.652,185.259 180.985,180.259 187.5,175.5C 189.603,174.65 191.603,173.65 193.5,172.5 Z"/></g>
<g><path style="opacity:1" fill="#9787a0" d="M 21.5,190.5 C 20.1283,189.488 18.795,188.488 17.5,187.5C 18.4231,185.233 19.2564,182.9 20,180.5C 20.7199,178.745 21.8866,177.911 23.5,178C 24.8287,182.505 24.1621,186.672 21.5,190.5 Z"/></g>
<g><path style="opacity:1" fill="#616578" d="M 183.5,173.5 C 184.5,173.5 185.5,173.5 186.5,173.5C 186.833,174.167 187.167,174.833 187.5,175.5C 180.985,180.259 174.652,185.259 168.5,190.5C 168.5,189.5 168.5,188.5 168.5,187.5C 169.808,185.503 171.141,183.503 172.5,181.5C 172.897,182.525 173.563,182.692 174.5,182C 177.442,178.885 180.442,176.051 183.5,173.5 Z"/></g>
<g><path style="opacity:1" fill="#8c7e99" d="M 29.5,179.5 C 29.8333,179.5 30.1667,179.5 30.5,179.5C 29.3661,183.836 29.3661,188.169 30.5,192.5C 31.5,191.833 32.5,191.167 33.5,190.5C 33.8333,190.833 34.1667,191.167 34.5,191.5C 32.9713,192.763 31.3046,193.763 29.5,194.5C 27.847,194.34 26.5137,193.674 25.5,192.5C 26.0636,187.907 27.397,183.574 29.5,179.5 Z"/></g>
<g><path style="opacity:1" fill="#6797b0" d="M 84.5,176.5 C 85.9475,179.264 88.2809,180.931 91.5,181.5C 94.0473,182.999 96.714,184.499 99.5,186C 100.793,186.49 102.127,186.657 103.5,186.5C 103.5,187.5 103.5,188.5 103.5,189.5C 102.167,189.5 100.833,189.5 99.5,189.5C 95.5638,189.267 91.8972,188.267 88.5,186.5C 85.8154,183.81 83.4821,180.81 81.5,177.5C 82.609,177.443 83.609,177.11 84.5,176.5 Z"/></g>
<g><path style="opacity:1" fill="#cebdd0" d="M 154.5,163.5 C 152.457,168.969 151.457,174.635 151.5,180.5C 151.294,184.469 151.961,188.135 153.5,191.5C 153.5,191.833 153.5,192.167 153.5,192.5C 153.062,193.506 152.396,193.506 151.5,192.5C 150.833,191.5 150.167,190.5 149.5,189.5C 148.27,187.703 147.604,185.703 147.5,183.5C 148.397,184.598 149.23,184.598 150,183.5C 150.282,177.784 150.948,172.117 152,166.5C 152.236,164.881 153.069,163.881 154.5,163.5 Z"/></g>
<g><path style="opacity:1" fill="#413f63" d="M 31.5,176.5 C 32.2832,178.076 33.4499,179.409 35,180.5C 35.3826,179.944 35.8826,179.611 36.5,179.5C 37.3443,181.843 38.3443,184.176 39.5,186.5C 39.7822,187.778 40.4489,188.778 41.5,189.5C 42.0283,190.847 42.195,192.181 42,193.5C 39.697,194.214 37.5304,195.214 35.5,196.5C 33.1016,196.741 31.1016,196.074 29.5,194.5C 31.3046,193.763 32.9713,192.763 34.5,191.5C 34.1667,191.167 33.8333,190.833 33.5,190.5C 32.5,191.167 31.5,191.833 30.5,192.5C 29.3661,188.169 29.3661,183.836 30.5,179.5C 30.5569,178.391 30.8902,177.391 31.5,176.5 Z"/></g>
<g><path style="opacity:1" fill="#4d5e7b" d="M 67.5,179.5 C 68.8333,180.5 70.1667,181.5 71.5,182.5C 76.9398,189.279 83.2732,194.946 90.5,199.5C 87.1667,199.5 83.8333,199.5 80.5,199.5C 77.8739,197.177 75.2072,194.843 72.5,192.5C 70.1667,189.167 67.8333,185.833 65.5,182.5C 65.1667,181.833 64.8333,181.167 64.5,180.5C 65.209,179.596 66.209,179.263 67.5,179.5 Z"/></g>
<g><path style="opacity:1" fill="#91ece8" d="M 72.5,192.5 C 75.2072,194.843 77.8739,197.177 80.5,199.5C 69.5,199.5 58.5,199.5 47.5,199.5C 47.5,199.167 47.5,198.833 47.5,198.5C 46.914,196.16 45.914,193.993 44.5,192C 46,190.833 47.5,189.667 49,188.5C 49.7771,190.215 51.1105,191.215 53,191.5C 56.8706,190.954 60.704,190.288 64.5,189.5C 65.2868,190.242 65.9535,191.075 66.5,192C 68.6099,191.653 70.6099,191.82 72.5,192.5 Z"/></g>
<g><path style="opacity:1" fill="#8190a9" d="M 168.5,187.5 C 168.5,188.5 168.5,189.5 168.5,190.5C 168.5,190.833 168.5,191.167 168.5,191.5C 163.852,192.662 159.185,193.829 154.5,195C 152.505,195.924 152.172,197.09 153.5,198.5C 153.5,198.833 153.5,199.167 153.5,199.5C 152.833,199.5 152.167,199.5 151.5,199.5C 151.5,198.167 151.5,196.833 151.5,195.5C 151.5,194.5 151.5,193.5 151.5,192.5C 152.396,193.506 153.062,193.506 153.5,192.5C 158.792,191.686 163.792,190.02 168.5,187.5 Z"/></g>
<g><path style="opacity:1" fill="#79b4bd" d="M 88.5,186.5 C 91.8972,188.267 95.5638,189.267 99.5,189.5C 98.3915,190.29 97.0581,190.79 95.5,191C 96.1667,191.333 96.8333,191.667 97.5,192C 107.494,192.5 117.494,192.666 127.5,192.5C 127.5,192.833 127.5,193.167 127.5,193.5C 118.318,193.173 109.318,193.507 100.5,194.5C 100.167,194.5 99.8333,194.5 99.5,194.5C 94.7659,193.451 91.0992,190.784 88.5,186.5 Z"/></g>
<g><path style="opacity:1" fill="#494864" d="M 149.5,189.5 C 150.167,190.5 150.833,191.5 151.5,192.5C 151.5,193.5 151.5,194.5 151.5,195.5C 150.167,195.5 148.833,195.5 147.5,195.5C 147.38,194.414 146.713,193.747 145.5,193.5C 136.018,194.116 126.685,194.783 117.5,195.5C 114.678,196.507 111.678,197.34 108.5,198C 107.944,198.383 107.611,198.883 107.5,199.5C 106.833,199.5 106.167,199.5 105.5,199.5C 106.087,198.233 106.087,197.233 105.5,196.5C 101.219,199.729 99.5522,199.062 100.5,194.5C 109.318,193.507 118.318,193.173 127.5,193.5C 131.371,193.815 135.038,193.482 138.5,192.5C 141.067,191.525 143.733,190.858 146.5,190.5C 147.391,189.89 148.391,189.557 149.5,189.5 Z"/></g>
<g><path style="opacity:1" fill="#45526a" d="M 47.5,185.5 C 42.2806,189.966 42.2806,194.299 47.5,198.5C 47.5,198.833 47.5,199.167 47.5,199.5C 46.8333,199.5 46.1667,199.5 45.5,199.5C 42.1129,198.712 38.7796,197.712 35.5,196.5C 37.5304,195.214 39.697,194.214 42,193.5C 42.195,192.181 42.0283,190.847 41.5,189.5C 43.0257,188.895 44.0257,187.729 44.5,186C 45.448,185.517 46.448,185.351 47.5,185.5 Z"/></g>
<g><path style="opacity:1" fill="#776685" d="M 147.5,195.5 C 137.54,195.949 127.54,195.949 117.5,195.5C 126.685,194.783 136.018,194.116 145.5,193.5C 146.713,193.747 147.38,194.414 147.5,195.5 Z"/></g>
<g><path style="opacity:1" fill="#98a6bd" d="M 168.5,191.5 C 167.864,193.795 166.531,195.461 164.5,196.5C 161.002,197.917 157.335,198.583 153.5,198.5C 152.172,197.09 152.505,195.924 154.5,195C 159.185,193.829 163.852,192.662 168.5,191.5 Z"/></g>
<g><path style="opacity:1" fill="#9587a5" d="M 117.5,195.5 C 127.54,195.949 137.54,195.949 147.5,195.5C 148.833,195.5 150.167,195.5 151.5,195.5C 151.5,196.833 151.5,198.167 151.5,199.5C 136.833,199.5 122.167,199.5 107.5,199.5C 107.611,198.883 107.944,198.383 108.5,198C 111.678,197.34 114.678,196.507 117.5,195.5 Z"/></g>
<g><path style="opacity:1" fill="#6a768f" d="M 99.5,194.5 C 99.8333,194.5 100.167,194.5 100.5,194.5C 99.5522,199.062 101.219,199.729 105.5,196.5C 106.087,197.233 106.087,198.233 105.5,199.5C 101.833,199.5 98.1667,199.5 94.5,199.5C 96.3603,198.061 98.027,196.395 99.5,194.5 Z"/></g>
</svg>
